<svg width="432" height="107" viewBox="0 0 432 107" fill="none" xmlns="http://www.w3.org/2000/svg">
<mask id="path-1-outside-1_4086_1220" maskUnits="userSpaceOnUse" x="-0.0776367" y="-0.465576" width="432" height="107" fill="black">
<rect fill="white" x="-0.0776367" y="-0.465576" width="432" height="107"/>
<path d="M39.7304 40.1944C39.5757 40.2718 39.4984 40.3491 39.4984 40.4264C39.4984 40.5038 39.5757 40.5811 39.7304 40.6584C43.9064 42.4371 47.1157 45.0278 49.3584 48.4304C51.6784 51.8331 52.8384 55.8931 52.8384 60.6104C52.8384 67.4158 50.673 72.7904 46.3424 76.7344C42.089 80.6011 36.4437 82.5344 29.4064 82.5344H1.91436C1.14103 82.5344 0.754364 82.1478 0.754364 81.3744V2.49442C0.754364 1.72108 1.14103 1.33442 1.91436 1.33442H28.5944C35.7864 1.33442 41.4704 3.19042 45.6464 6.90242C49.8224 10.6144 51.9104 15.7571 51.9104 22.3304C51.9104 26.6611 50.8664 30.3344 48.7784 33.3504C46.6904 36.3664 43.6744 38.6478 39.7304 40.1944ZM7.36636 6.78642C7.05703 6.78642 6.90236 6.94108 6.90236 7.25042V37.6424C6.90236 37.9518 7.05703 38.1064 7.36636 38.1064H28.5944C33.853 38.1064 38.029 36.7144 41.1224 33.9304C44.293 31.0691 45.8784 27.3184 45.8784 22.6784C45.8784 17.8838 44.293 14.0558 41.1224 11.1944C38.029 8.25575 33.853 6.78642 28.5944 6.78642H7.36636ZM29.4064 76.9664C34.665 76.9664 38.841 75.4584 41.9344 72.4424C45.105 69.3491 46.6904 65.2891 46.6904 60.2624C46.6904 55.0811 45.0664 50.9824 41.8184 47.9664C38.5704 44.8731 34.2397 43.3264 28.8264 43.3264H7.36636C7.05703 43.3264 6.90236 43.4811 6.90236 43.7904V76.5024C6.90236 76.8118 7.05703 76.9664 7.36636 76.9664H29.4064ZM94.0075 23.6064C96.6368 23.6064 98.8795 24.0704 100.735 24.9984C101.354 25.2304 101.586 25.7331 101.431 26.5064L100.387 30.2184C100.155 30.9918 99.6528 31.2238 98.8795 30.9144C97.3328 30.2958 95.3995 30.0251 93.0795 30.1024C88.7488 30.1798 85.1528 31.8424 82.2915 35.0904C79.5075 38.2611 78.1155 42.1664 78.1155 46.8064V81.3744C78.1155 82.1478 77.7288 82.5344 76.9555 82.5344H73.1275C72.3542 82.5344 71.9675 82.1478 71.9675 81.3744V25.2304C71.9675 24.4571 72.3542 24.0704 73.1275 24.0704H76.9555C77.7288 24.0704 78.1155 24.4571 78.1155 25.2304V33.1184C78.1155 33.3504 78.1542 33.5051 78.2315 33.5824C78.3862 33.5824 78.5022 33.4664 78.5795 33.2344C80.2035 30.2184 82.2915 27.8598 84.8435 26.1584C87.4728 24.4571 90.5275 23.6064 94.0075 23.6064ZM132.914 23.1424C139.719 23.1424 144.9 24.9211 148.458 28.4784C152.015 31.9584 153.794 36.6758 153.794 42.6304V81.3744C153.794 82.1478 153.407 82.5344 152.634 82.5344H148.806C148.032 82.5344 147.646 82.1478 147.646 81.3744V75.9224C147.646 75.7678 147.568 75.6518 147.414 75.5744C147.336 75.4971 147.22 75.5358 147.066 75.6904C145.055 78.2424 142.426 80.1758 139.178 81.4904C136.007 82.8051 132.45 83.4624 128.506 83.4624C123.17 83.4624 118.646 82.1091 114.934 79.4024C111.222 76.6958 109.366 72.5584 109.366 66.9904C109.366 61.2678 111.492 56.7438 115.746 53.4184C119.999 50.0931 125.838 48.4304 133.262 48.4304H147.182C147.491 48.4304 147.646 48.2758 147.646 47.9664V42.7464C147.646 38.4158 146.408 34.9744 143.934 32.4224C141.536 29.8704 137.824 28.5944 132.798 28.5944C128.854 28.5944 125.606 29.4064 123.054 31.0304C120.502 32.6544 118.916 34.8198 118.298 37.5264C118.066 38.2998 117.602 38.6478 116.906 38.5704L112.846 37.9904C111.995 37.8358 111.647 37.5264 111.802 37.0624C112.498 32.8864 114.74 29.5224 118.53 26.9704C122.396 24.4184 127.191 23.1424 132.914 23.1424ZM129.55 78.1264C134.422 78.1264 138.636 76.9278 142.194 74.5304C145.828 72.1331 147.646 68.8078 147.646 64.5544V53.9984C147.646 53.6891 147.491 53.5344 147.182 53.5344H133.842C128.351 53.5344 123.904 54.6944 120.502 57.0144C117.176 59.3344 115.514 62.5438 115.514 66.6424C115.514 70.4318 116.828 73.2931 119.458 75.2264C122.087 77.1598 125.451 78.1264 129.55 78.1264ZM195.189 23.2584C201.144 23.2584 205.939 25.0758 209.573 28.7104C213.285 32.3451 215.141 37.1398 215.141 43.0944V81.3744C215.141 82.1478 214.755 82.5344 213.981 82.5344H210.153C209.38 82.5344 208.993 82.1478 208.993 81.3744V44.2544C208.993 39.6918 207.601 35.9798 204.817 33.1184C202.033 30.1798 198.399 28.7104 193.913 28.7104C189.273 28.7104 185.523 30.1411 182.661 33.0024C179.8 35.7864 178.369 39.4598 178.369 44.0224V81.3744C178.369 82.1478 177.983 82.5344 177.209 82.5344H173.381C172.608 82.5344 172.221 82.1478 172.221 81.3744V25.2304C172.221 24.4571 172.608 24.0704 173.381 24.0704H177.209C177.983 24.0704 178.369 24.4571 178.369 25.2304V30.9144C178.369 31.1464 178.408 31.3011 178.485 31.3784C178.64 31.3784 178.756 31.3011 178.833 31.1464C180.535 28.5944 182.777 26.6611 185.561 25.3464C188.345 23.9544 191.555 23.2584 195.189 23.2584ZM270.044 2.49442C270.044 1.72108 270.431 1.33442 271.204 1.33442H275.032C275.805 1.33442 276.192 1.72108 276.192 2.49442V81.3744C276.192 82.1478 275.805 82.5344 275.032 82.5344H271.204C270.431 82.5344 270.044 82.1478 270.044 81.3744V75.6904C270.044 75.4584 269.967 75.3424 269.812 75.3424C269.735 75.2651 269.619 75.3038 269.464 75.4584C267.84 78.0104 265.675 79.9824 262.968 81.3744C260.261 82.7664 257.206 83.4624 253.804 83.4624C248.545 83.4624 244.098 82.0704 240.464 79.2864C236.829 76.5024 234.354 72.7518 233.04 68.0344C232.498 66.2558 232.15 64.2838 231.996 62.1184C231.841 59.8758 231.764 56.9758 231.764 53.4184C231.764 49.9384 231.841 47.0771 231.996 44.8344C232.15 42.5918 232.46 40.5811 232.924 38.8024C234.084 34.0078 236.481 30.2184 240.116 27.4344C243.828 24.5731 248.391 23.1424 253.804 23.1424C257.206 23.1424 260.261 23.8384 262.968 25.2304C265.675 26.6224 267.84 28.5944 269.464 31.1464C269.541 31.3784 269.657 31.4944 269.812 31.4944C269.967 31.4171 270.044 31.2624 270.044 31.0304V2.49442ZM268.536 67.1064C269.077 65.6371 269.425 63.9744 269.58 62.1184C269.812 60.2624 269.928 57.3624 269.928 53.4184C269.928 49.3198 269.812 46.3424 269.58 44.4864C269.348 42.5531 268.961 40.8131 268.42 39.2664C267.569 36.0958 265.907 33.5438 263.432 31.6104C261.035 29.5998 258.057 28.5944 254.5 28.5944C250.865 28.5944 247.733 29.5998 245.104 31.6104C242.474 33.5438 240.696 36.0571 239.768 39.1504C239.072 40.6198 238.569 42.3211 238.26 44.2544C238.028 46.1104 237.912 49.1264 237.912 53.3024C237.912 57.3238 238.028 60.2624 238.26 62.1184C238.492 63.8971 238.878 65.5598 239.42 67.1064C240.193 70.3544 241.933 72.9838 244.64 74.9944C247.346 77.0051 250.594 78.0104 254.384 78.0104C258.019 78.0104 261.035 77.0051 263.432 74.9944C265.907 72.9838 267.608 70.3544 268.536 67.1064ZM301.134 12.3544C299.432 12.3544 298.04 11.8131 296.958 10.7304C295.875 9.64776 295.334 8.25575 295.334 6.55442C295.334 4.85309 295.875 3.46109 296.958 2.37842C298.04 1.29575 299.432 0.754419 301.134 0.754419C302.835 0.754419 304.227 1.29575 305.31 2.37842C306.392 3.46109 306.934 4.85309 306.934 6.55442C306.934 8.25575 306.392 9.64776 305.31 10.7304C304.227 11.8131 302.835 12.3544 301.134 12.3544ZM298.93 82.4184C298.156 82.4184 297.77 82.0318 297.77 81.2584V25.1144C297.77 24.3411 298.156 23.9544 298.93 23.9544H302.758C303.531 23.9544 303.918 24.3411 303.918 25.1144V81.2584C303.918 82.0318 303.531 82.4184 302.758 82.4184H298.93ZM349.025 23.2584C354.98 23.2584 359.775 25.0758 363.409 28.7104C367.121 32.3451 368.977 37.1398 368.977 43.0944V81.3744C368.977 82.1478 368.591 82.5344 367.817 82.5344H363.989C363.216 82.5344 362.829 82.1478 362.829 81.3744V44.2544C362.829 39.6918 361.437 35.9798 358.653 33.1184C355.869 30.1798 352.235 28.7104 347.749 28.7104C343.109 28.7104 339.359 30.1411 336.497 33.0024C333.636 35.7864 332.205 39.4598 332.205 44.0224V81.3744C332.205 82.1478 331.819 82.5344 331.045 82.5344H327.217C326.444 82.5344 326.057 82.1478 326.057 81.3744V25.2304C326.057 24.4571 326.444 24.0704 327.217 24.0704H331.045C331.819 24.0704 332.205 24.4571 332.205 25.2304V30.9144C332.205 31.1464 332.244 31.3011 332.321 31.3784C332.476 31.3784 332.592 31.3011 332.669 31.1464C334.371 28.5944 336.613 26.6611 339.397 25.3464C342.181 23.9544 345.391 23.2584 349.025 23.2584ZM424.554 25.2304C424.554 24.4571 424.941 24.0704 425.714 24.0704H429.542C430.315 24.0704 430.702 24.4571 430.702 25.2304V81.2584C430.702 89.9971 428.073 96.3384 422.814 100.282C417.555 104.226 410.131 106.005 400.542 105.618C399.769 105.541 399.382 105.116 399.382 104.342L399.498 100.978C399.498 100.205 399.885 99.8184 400.658 99.8184C408.933 100.128 414.965 98.7358 418.754 95.6424C422.621 92.6264 424.554 87.7931 424.554 81.1424V75.3424C424.554 75.1104 424.477 74.9944 424.322 74.9944C424.245 74.9171 424.129 74.9558 423.974 75.1104C420.494 80.4464 415.197 83.1144 408.082 83.1144C403.055 83.1144 398.647 81.7611 394.858 79.0544C391.069 76.2704 388.555 72.4811 387.318 67.6864C386.467 64.5158 386.042 59.7598 386.042 53.4184C386.042 46.6131 386.506 41.6251 387.434 38.4544C388.671 33.8918 391.107 30.2184 394.742 27.4344C398.377 24.5731 402.746 23.1424 407.85 23.1424C414.965 23.1424 420.339 25.7718 423.974 31.0304C424.051 31.1851 424.167 31.2238 424.322 31.1464C424.477 31.0691 424.554 30.9531 424.554 30.7984V25.2304ZM423.974 65.4824C424.206 64.3224 424.361 62.8918 424.438 61.1904C424.515 59.4891 424.554 56.8598 424.554 53.3024C424.554 49.7451 424.515 47.1158 424.438 45.4144C424.361 43.7131 424.206 42.2051 423.974 40.8904C423.355 37.3331 421.693 34.3944 418.986 32.0744C416.357 29.7544 413.031 28.5944 409.01 28.5944C404.989 28.5944 401.586 29.7544 398.802 32.0744C396.095 34.3944 394.239 37.3331 393.234 40.8904C392.538 43.2104 392.19 47.3091 392.19 53.1864C392.19 58.9091 392.538 63.0078 393.234 65.4824C394.085 69.0398 395.902 71.9784 398.686 74.2984C401.547 76.6184 404.989 77.7784 409.01 77.7784C413.186 77.7784 416.55 76.6184 419.102 74.2984C421.731 71.9784 423.355 69.0398 423.974 65.4824Z"/>
</mask>
<path d="M39.7304 40.1944L39.455 39.4922L39.4234 39.5046L39.393 39.5197L39.7304 40.1944ZM39.7304 40.6584L39.393 41.3331L39.4136 41.3434L39.4348 41.3524L39.7304 40.6584ZM49.3584 48.4304L48.7285 48.8456L48.7351 48.8554L49.3584 48.4304ZM46.3424 76.7344L46.8498 77.2926L46.8503 77.2921L46.3424 76.7344ZM45.6464 6.90242L45.1452 7.46621V7.46621L45.6464 6.90242ZM41.1224 33.9304L41.627 34.4911L41.6277 34.4904L41.1224 33.9304ZM41.1224 11.1944L40.6028 11.7413L40.6098 11.748L40.617 11.7544L41.1224 11.1944ZM41.9344 72.4424L42.461 72.9825L42.4611 72.9824L41.9344 72.4424ZM41.8184 47.9664L41.2981 48.5127L41.3051 48.5192L41.8184 47.9664ZM39.7304 40.1944L39.393 39.5197C39.2802 39.5761 39.1423 39.6577 39.023 39.777C38.9021 39.8979 38.744 40.1171 38.744 40.4264H39.4984H40.2527C40.2527 40.6584 40.1333 40.8003 40.0898 40.8438C40.0477 40.8858 40.0259 40.89 40.0677 40.8691L39.7304 40.1944ZM39.4984 40.4264H38.744C38.744 40.7357 38.9021 40.9549 39.023 41.0758C39.1423 41.1952 39.2802 41.2767 39.393 41.3331L39.7304 40.6584L40.0677 39.9837C40.0259 39.9628 40.0477 39.967 40.0897 40.009C40.1333 40.0526 40.2527 40.1945 40.2527 40.4264H39.4984ZM39.7304 40.6584L39.4348 41.3524C43.4905 43.0798 46.5766 45.5805 48.7285 48.8455L49.3584 48.4304L49.9882 48.0153C47.6548 44.475 44.3223 41.7943 40.026 39.9644L39.7304 40.6584ZM49.3584 48.4304L48.7351 48.8554C50.9577 52.1152 52.084 56.0219 52.084 60.6104H52.8384H53.5927C53.5927 55.7642 52.399 51.551 49.9816 48.0055L49.3584 48.4304ZM52.8384 60.6104H52.084C52.084 67.2412 49.9823 72.3992 45.8345 76.1767L46.3424 76.7344L46.8503 77.2921C51.3638 73.1816 53.5927 67.5903 53.5927 60.6104H52.8384ZM46.3424 76.7344L45.835 76.1763C41.75 79.8899 36.3002 81.7801 29.4064 81.7801V82.5344V83.2887C36.5872 83.2887 42.4281 81.3123 46.8498 77.2926L46.3424 76.7344ZM29.4064 82.5344V81.7801H1.91436V82.5344V83.2887H29.4064V82.5344ZM1.91436 82.5344V81.7801C1.64397 81.7801 1.57973 81.713 1.57775 81.711C1.57577 81.7091 1.50869 81.6448 1.50869 81.3744H0.754364H4.29153e-05C4.29153e-05 81.8774 0.126288 82.3931 0.510978 82.7778C0.895667 83.1625 1.41142 83.2887 1.91436 83.2887V82.5344ZM0.754364 81.3744H1.50869V2.49442H0.754364H4.29153e-05V81.3744H0.754364ZM0.754364 2.49442H1.50869C1.50869 2.22403 1.57577 2.15978 1.57775 2.15781C1.57973 2.15583 1.64397 2.08874 1.91436 2.08874V1.33442V0.580093C1.41142 0.580093 0.895668 0.706345 0.510979 1.09103C0.126288 1.47572 4.29153e-05 1.99148 4.29153e-05 2.49442H0.754364ZM1.91436 1.33442V2.08874H28.5944V1.33442V0.580093H1.91436V1.33442ZM28.5944 1.33442V2.08874C35.6562 2.08874 41.1432 3.9089 45.1452 7.46621L45.6464 6.90242L46.1475 6.33864C41.7975 2.47195 35.9166 0.580093 28.5944 0.580093V1.33442ZM45.6464 6.90242L45.1452 7.46621C49.1314 11.0095 51.156 15.9308 51.156 22.3304H51.9104H52.6647C52.6647 15.5834 50.5133 10.2194 46.1475 6.33864L45.6464 6.90242ZM51.9104 22.3304H51.156C51.156 26.536 50.144 30.0527 48.1582 32.9211L48.7784 33.3504L49.3986 33.7798C51.5888 30.6162 52.6647 26.7861 52.6647 22.3304H51.9104ZM48.7784 33.3504L48.1582 32.9211C46.1681 35.7956 43.2817 37.9915 39.455 39.4922L39.7304 40.1944L40.0058 40.8967C44.067 39.304 47.2126 36.9372 49.3986 33.7798L48.7784 33.3504ZM7.36636 6.78642V6.0321C7.09542 6.0321 6.75367 6.10034 6.48498 6.36903C6.21629 6.63772 6.14804 6.97948 6.14804 7.25042H6.90236H7.65668C7.65668 7.21203 7.66577 7.32178 7.55175 7.43581C7.43773 7.54983 7.32797 7.54074 7.36636 7.54074V6.78642ZM6.90236 7.25042H6.14804V37.6424H6.90236H7.65668V7.25042H6.90236ZM6.90236 37.6424H6.14804C6.14804 37.9134 6.21629 38.2551 6.48498 38.5238C6.75367 38.7925 7.09542 38.8607 7.36636 38.8607V38.1064V37.3521C7.32797 37.3521 7.43773 37.343 7.55175 37.457C7.66577 37.5711 7.65668 37.6808 7.65668 37.6424H6.90236ZM7.36636 38.1064V38.8607H28.5944V38.1064V37.3521H7.36636V38.1064ZM28.5944 38.1064V38.8607C33.9885 38.8607 38.3615 37.4301 41.627 34.4911L41.1224 33.9304L40.6178 33.3697C37.6966 35.9988 33.7176 37.3521 28.5944 37.3521V38.1064ZM41.1224 33.9304L41.6277 34.4904C44.9716 31.4728 46.6327 27.5112 46.6327 22.6784H45.8784H45.124C45.124 27.1256 43.6144 30.6654 40.617 33.3704L41.1224 33.9304ZM45.8784 22.6784H46.6327C46.6327 17.6993 44.9773 13.6572 41.6277 10.6344L41.1224 11.1944L40.617 11.7544C43.6088 14.4543 45.124 18.0682 45.124 22.6784H45.8784ZM41.1224 11.1944L41.6419 10.6475C38.3775 7.54631 33.9991 6.0321 28.5944 6.0321V6.78642V7.54074C33.707 7.54074 37.6806 8.96519 40.6028 11.7413L41.1224 11.1944ZM28.5944 6.78642V6.0321H7.36636V6.78642V7.54074H28.5944V6.78642ZM29.4064 76.9664V77.7207C34.8164 77.7207 39.1973 76.1646 42.461 72.9825L41.9344 72.4424L41.4078 71.9023C38.4848 74.7523 34.5136 76.2121 29.4064 76.2121V76.9664ZM41.9344 72.4424L42.4611 72.9824C45.7974 69.7274 47.4447 65.4624 47.4447 60.2624H46.6904H45.936C45.936 65.1158 44.4126 68.9708 41.4076 71.9025L41.9344 72.4424ZM46.6904 60.2624H47.4447C47.4447 54.91 45.7596 50.5967 42.3316 47.4137L41.8184 47.9664L41.3051 48.5192C44.3731 51.3681 45.936 55.2521 45.936 60.2624H46.6904ZM41.8184 47.9664L42.3386 47.4202C38.9223 44.1666 34.3909 42.5721 28.8264 42.5721V43.3264V44.0807C34.0885 44.0807 38.2184 45.5796 41.2981 48.5127L41.8184 47.9664ZM28.8264 43.3264V42.5721H7.36636V43.3264V44.0807H28.8264V43.3264ZM7.36636 43.3264V42.5721C7.09542 42.5721 6.75367 42.6403 6.48498 42.909C6.21629 43.1777 6.14804 43.5195 6.14804 43.7904H6.90236H7.65668C7.65668 43.752 7.66577 43.8618 7.55175 43.9758C7.43773 44.0898 7.32797 44.0807 7.36636 44.0807V43.3264ZM6.90236 43.7904H6.14804V76.5024H6.90236H7.65668V43.7904H6.90236ZM6.90236 76.5024H6.14804C6.14804 76.7734 6.21629 77.1151 6.48498 77.3838C6.75367 77.6525 7.09542 77.7207 7.36636 77.7207V76.9664V76.2121C7.32797 76.2121 7.43773 76.203 7.55175 76.317C7.66577 76.4311 7.65668 76.5408 7.65668 76.5024H6.90236ZM7.36636 76.9664V77.7207H29.4064V76.9664V76.2121H7.36636V76.9664ZM100.735 24.9984L100.398 25.6731L100.434 25.6908L100.471 25.7047L100.735 24.9984ZM101.431 26.5064L102.158 26.7107L102.165 26.6828L102.171 26.6544L101.431 26.5064ZM100.387 30.2184L101.11 30.4352L101.114 30.4226L100.387 30.2184ZM98.8795 30.9144L99.1596 30.2141V30.2141L98.8795 30.9144ZM93.0795 30.1024L93.093 30.8567L93.1046 30.8563L93.0795 30.1024ZM82.2915 35.0904L81.7255 34.5918L81.7247 34.5927L82.2915 35.0904ZM78.2315 33.5824L77.6981 34.1158L77.919 34.3367H78.2315V33.5824ZM78.5795 33.2344L77.9153 32.8768L77.8845 32.9341L77.8639 32.9959L78.5795 33.2344ZM84.8435 26.1584L84.4337 25.5251L84.4251 25.5308L84.8435 26.1584ZM94.0075 23.6064V24.3607C96.5501 24.3607 98.6711 24.8096 100.398 25.6731L100.735 24.9984L101.073 24.3237C99.0879 23.3313 96.7235 22.8521 94.0075 22.8521V23.6064ZM100.735 24.9984L100.471 25.7047C100.633 25.7654 100.672 25.8286 100.689 25.8655C100.715 25.922 100.751 26.0642 100.692 26.3585L101.431 26.5064L102.171 26.6544C102.267 26.1753 102.264 25.6795 102.058 25.2333C101.843 24.7675 101.457 24.4634 101 24.2921L100.735 24.9984ZM101.431 26.5064L100.705 26.3022L99.6613 30.0142L100.387 30.2184L101.114 30.4226L102.158 26.7107L101.431 26.5064ZM100.387 30.2184L99.665 30.0017C99.6247 30.1361 99.5826 30.2124 99.5537 30.2519C99.5399 30.2707 99.5301 30.28 99.5256 30.2837C99.5233 30.2857 99.5219 30.2866 99.5213 30.287C99.5208 30.2874 99.5205 30.2875 99.5204 30.2875C99.5203 30.2876 99.5196 30.2879 99.5181 30.2883C99.5167 30.2888 99.5138 30.2896 99.5092 30.2903C99.5002 30.2919 99.4827 30.2937 99.4544 30.292C99.3955 30.2884 99.2995 30.27 99.1596 30.2141L98.8795 30.9144L98.5993 31.6148C99.0818 31.8078 99.6358 31.8958 100.153 31.6573C100.676 31.4156 100.961 30.9322 101.11 30.4352L100.387 30.2184ZM98.8795 30.9144L99.1596 30.2141C97.4858 29.5445 95.4404 29.269 93.0544 29.3485L93.0795 30.1024L93.1046 30.8563C95.3586 30.7812 97.1798 31.047 98.5993 31.6148L98.8795 30.9144ZM93.0795 30.1024L93.066 29.3482C88.5236 29.4293 84.727 31.1846 81.7255 34.5918L82.2915 35.0904L82.8575 35.5891C85.5786 32.5002 88.974 30.9302 93.093 30.8566L93.0795 30.1024ZM82.2915 35.0904L81.7247 34.5927C78.8074 37.9151 77.3612 42.0029 77.3612 46.8064H78.1155H78.8698C78.8698 42.3299 80.2075 38.6071 82.8583 35.5881L82.2915 35.0904ZM78.1155 46.8064H77.3612V81.3744H78.1155H78.8698V46.8064H78.1155ZM78.1155 81.3744H77.3612C77.3612 81.6448 77.2941 81.7091 77.2921 81.711C77.2901 81.713 77.2259 81.7801 76.9555 81.7801V82.5344V83.2887C77.4584 83.2887 77.9742 83.1625 78.3589 82.7778C78.7436 82.3931 78.8698 81.8774 78.8698 81.3744H78.1155ZM76.9555 82.5344V81.7801H73.1275V82.5344V83.2887H76.9555V82.5344ZM73.1275 82.5344V81.7801C72.8571 81.7801 72.7929 81.713 72.7909 81.711C72.7889 81.7091 72.7218 81.6448 72.7218 81.3744H71.9675H71.2132C71.2132 81.8774 71.3394 82.3931 71.7241 82.7778C72.1088 83.1625 72.6245 83.2887 73.1275 83.2887V82.5344ZM71.9675 81.3744H72.7218V25.2304H71.9675H71.2132V81.3744H71.9675ZM71.9675 25.2304H72.7218C72.7218 24.96 72.7889 24.8958 72.7909 24.8938C72.7929 24.8918 72.8571 24.8247 73.1275 24.8247V24.0704V23.3161C72.6245 23.3161 72.1088 23.4423 71.7241 23.827C71.3394 24.2117 71.2132 24.7275 71.2132 25.2304H71.9675ZM73.1275 24.0704V24.8247H76.9555V24.0704V23.3161H73.1275V24.0704ZM76.9555 24.0704V24.8247C77.2259 24.8247 77.2901 24.8918 77.2921 24.8938C77.2941 24.8958 77.3612 24.96 77.3612 25.2304H78.1155H78.8698C78.8698 24.7275 78.7436 24.2117 78.3589 23.827C77.9742 23.4423 77.4584 23.3161 76.9555 23.3161V24.0704ZM78.1155 25.2304H77.3612V33.1184H78.1155H78.8698V25.2304H78.1155ZM78.1155 33.1184H77.3612C77.3612 33.2708 77.3733 33.4338 77.4127 33.5914C77.4509 33.7443 77.5283 33.946 77.6981 34.1158L78.2315 33.5824L78.7649 33.049C78.8124 33.0965 78.8402 33.1422 78.8554 33.1726C78.8704 33.2025 78.8755 33.2224 78.8763 33.2255C78.8772 33.2289 78.8753 33.2224 78.8733 33.2029C78.8714 33.1837 78.8698 33.156 78.8698 33.1184H78.1155ZM78.2315 33.5824V34.3367C78.8872 34.3367 79.1849 33.8035 79.2951 33.473L78.5795 33.2344L77.8639 32.9959C77.8456 33.0508 77.8457 33.0174 77.9011 32.962C77.9322 32.9309 77.9792 32.8947 78.0431 32.8673C78.1079 32.8396 78.1732 32.8281 78.2315 32.8281V33.5824ZM78.5795 33.2344L79.2436 33.592C80.816 30.6719 82.8242 28.4112 85.2619 26.7861L84.8435 26.1584L84.4251 25.5308C81.7587 27.3083 79.591 29.7649 77.9153 32.8768L78.5795 33.2344ZM84.8435 26.1584L85.2533 26.7917C87.7472 25.178 90.6562 24.3607 94.0075 24.3607V23.6064V22.8521C90.3988 22.8521 87.1984 23.7362 84.4337 25.5251L84.8435 26.1584ZM148.458 28.4784L147.924 29.0118L147.93 29.0176L148.458 28.4784ZM147.414 75.5744L146.88 76.1078L146.967 76.1944L147.076 76.2491L147.414 75.5744ZM147.066 75.6904L146.532 75.157L146.501 75.1886L146.473 75.2236L147.066 75.6904ZM139.178 81.4904L138.895 80.7912L138.889 80.7936L139.178 81.4904ZM114.934 79.4024L115.378 78.7929V78.7929L114.934 79.4024ZM115.746 53.4184L115.281 52.8242V52.8242L115.746 53.4184ZM143.934 32.4224L143.384 32.939L143.392 32.9475L143.934 32.4224ZM123.054 31.0304L122.649 30.394V30.394L123.054 31.0304ZM118.298 37.5264L119.02 37.7432L119.027 37.7191L119.033 37.6945L118.298 37.5264ZM116.906 38.5704L116.799 39.3172L116.811 39.3188L116.822 39.3201L116.906 38.5704ZM112.846 37.9904L112.711 38.7326L112.725 38.7351L112.739 38.7372L112.846 37.9904ZM111.802 37.0624L112.517 37.301L112.536 37.2448L112.546 37.1864L111.802 37.0624ZM118.53 26.9704L118.114 26.3408L118.108 26.3448L118.53 26.9704ZM142.194 74.5304L141.778 73.9007L141.772 73.9049L142.194 74.5304ZM120.502 57.0144L120.077 56.3911L120.07 56.3958L120.502 57.0144ZM119.458 75.2264L119.905 74.6187V74.6187L119.458 75.2264ZM132.914 23.1424V23.8967C139.592 23.8967 144.553 25.6401 147.924 29.0118L148.458 28.4784L148.991 27.945C145.248 24.2021 139.847 22.3881 132.914 22.3881V23.1424ZM148.458 28.4784L147.93 29.0176C151.314 32.3283 153.039 36.8358 153.039 42.6304H153.794H154.548C154.548 36.5157 152.716 31.5885 148.985 27.9392L148.458 28.4784ZM153.794 42.6304H153.039V81.3744H153.794H154.548V42.6304H153.794ZM153.794 81.3744H153.039C153.039 81.6448 152.972 81.7091 152.97 81.711C152.968 81.713 152.904 81.7801 152.634 81.7801V82.5344V83.2887C153.137 83.2887 153.652 83.1625 154.037 82.7778C154.422 82.3931 154.548 81.8774 154.548 81.3744H153.794ZM152.634 82.5344V81.7801H148.806V82.5344V83.2887H152.634V82.5344ZM148.806 82.5344V81.7801C148.535 81.7801 148.471 81.713 148.469 81.711C148.467 81.7091 148.4 81.6448 148.4 81.3744H147.646H146.891C146.891 81.8774 147.018 82.3931 147.402 82.7778C147.787 83.1625 148.303 83.2887 148.806 83.2887V82.5344ZM147.646 81.3744H148.4V75.9224H147.646H146.891V81.3744H147.646ZM147.646 75.9224H148.4C148.4 75.7131 148.346 75.4963 148.215 75.301C148.088 75.1104 147.918 74.9831 147.751 74.8997L147.414 75.5744L147.076 76.2491C147.064 76.243 147.01 76.2124 146.96 76.1378C146.907 76.0586 146.891 75.9771 146.891 75.9224H147.646ZM147.414 75.5744L147.947 75.041C147.834 74.9284 147.682 74.8357 147.496 74.7985C147.316 74.7624 147.154 74.7885 147.03 74.8298C146.805 74.9049 146.637 75.0525 146.532 75.157L147.066 75.6904L147.599 76.2238C147.649 76.1737 147.616 76.2246 147.507 76.261C147.441 76.283 147.333 76.3043 147.201 76.2778C147.063 76.2503 146.954 76.1818 146.88 76.1078L147.414 75.5744ZM147.066 75.6904L146.473 75.2236C144.55 77.6645 142.031 79.5218 138.895 80.7912L139.178 81.4904L139.461 82.1896C142.82 80.8297 145.56 78.8204 147.658 76.1572L147.066 75.6904ZM139.178 81.4904L138.889 80.7936C135.822 82.0651 132.365 82.7081 128.506 82.7081V83.4624V84.2167C132.534 84.2167 136.192 83.5451 139.467 82.1872L139.178 81.4904ZM128.506 83.4624V82.7081C123.303 82.7081 118.941 81.3909 115.378 78.7929L114.934 79.4024L114.489 80.0119C118.35 82.8273 123.037 84.2167 128.506 84.2167V83.4624ZM114.934 79.4024L115.378 78.7929C111.903 76.2591 110.12 72.375 110.12 66.9904H109.366H108.611C108.611 72.7419 110.54 77.1325 114.489 80.0119L114.934 79.4024ZM109.366 66.9904H110.12C110.12 61.4838 112.152 57.1854 116.21 54.0127L115.746 53.4184L115.281 52.8242C110.833 56.3021 108.611 61.0518 108.611 66.9904H109.366ZM115.746 53.4184L116.21 54.0127C120.289 50.8239 125.944 49.1847 133.262 49.1847V48.4304V47.6761C125.732 47.6761 119.709 49.3623 115.281 52.8242L115.746 53.4184ZM133.262 48.4304V49.1847H147.182V48.4304V47.6761H133.262V48.4304ZM147.182 48.4304V49.1847C147.453 49.1847 147.794 49.1165 148.063 48.8478C148.332 48.5791 148.4 48.2374 148.4 47.9664H147.646H146.891C146.891 48.0048 146.882 47.8951 146.996 47.781C147.11 47.667 147.22 47.6761 147.182 47.6761V48.4304ZM147.646 47.9664H148.4V42.7464H147.646H146.891V47.9664H147.646ZM147.646 42.7464H148.4C148.4 38.2651 147.115 34.6196 144.475 31.8973L143.934 32.4224L143.392 32.9475C145.702 35.3293 146.891 38.5664 146.891 42.7464H147.646ZM143.934 32.4224L144.483 31.906C141.891 29.1461 137.941 27.8401 132.798 27.8401V28.5944V29.3487C137.708 29.3487 141.182 30.5948 143.384 32.9389L143.934 32.4224ZM132.798 28.5944V27.8401C128.753 27.8401 125.353 28.6728 122.649 30.394L123.054 31.0304L123.459 31.6668C125.858 30.14 128.954 29.3487 132.798 29.3487V28.5944ZM123.054 31.0304L122.649 30.394C119.946 32.1141 118.229 34.4399 117.562 37.3583L118.298 37.5264L119.033 37.6945C119.603 35.1996 121.058 33.1947 123.459 31.6668L123.054 31.0304ZM118.298 37.5264L117.575 37.3097C117.488 37.601 117.384 37.7181 117.323 37.764C117.275 37.7998 117.188 37.8428 116.989 37.8207L116.906 38.5704L116.822 39.3201C117.319 39.3753 117.812 39.283 118.228 38.9709C118.631 38.6687 118.876 38.2252 119.02 37.7432L118.298 37.5264ZM116.906 38.5704L117.012 37.8237L112.952 37.2437L112.846 37.9904L112.739 38.7372L116.799 39.3172L116.906 38.5704ZM112.846 37.9904L112.981 37.2483C112.8 37.2154 112.667 37.178 112.574 37.142C112.479 37.105 112.447 37.0781 112.448 37.0786C112.455 37.0847 112.493 37.1244 112.512 37.1985C112.53 37.2696 112.514 37.3119 112.517 37.301L111.802 37.0624L111.086 36.8239C111.012 37.045 110.982 37.2999 111.048 37.5644C111.115 37.8318 111.265 38.0454 111.446 38.2062C111.779 38.5022 112.248 38.6485 112.711 38.7326L112.846 37.9904ZM111.802 37.0624L112.546 37.1864C113.205 33.2322 115.318 30.0425 118.951 27.5961L118.53 26.9704L118.108 26.3448C114.162 29.0023 111.791 32.5406 111.058 36.9384L111.802 37.0624ZM118.53 26.9704L118.945 27.6C122.662 25.1467 127.304 23.8967 132.914 23.8967V23.1424V22.3881C127.078 22.3881 122.13 23.6902 118.114 26.3409L118.53 26.9704ZM129.55 78.1264V78.8807C134.551 78.8807 138.917 77.6483 142.615 75.156L142.194 74.5304L141.772 73.9049C138.356 76.2072 134.293 77.3721 129.55 77.3721V78.1264ZM142.194 74.5304L142.609 75.1601C146.449 72.6272 148.4 69.0684 148.4 64.5544H147.646H146.891C146.891 68.5471 145.207 71.639 141.778 73.9007L142.194 74.5304ZM147.646 64.5544H148.4V53.9984H147.646H146.891V64.5544H147.646ZM147.646 53.9984H148.4C148.4 53.7275 148.332 53.3857 148.063 53.117C147.794 52.8484 147.453 52.7801 147.182 52.7801V53.5344V54.2887C147.22 54.2887 147.11 54.2978 146.996 54.1838C146.882 54.0698 146.891 53.96 146.891 53.9984H147.646ZM147.182 53.5344V52.7801H133.842V53.5344V54.2887H147.182V53.5344ZM133.842 53.5344V52.7801C128.249 52.7801 123.64 53.9615 120.077 56.3912L120.502 57.0144L120.927 57.6377C124.169 55.4273 128.453 54.2887 133.842 54.2887V53.5344ZM120.502 57.0144L120.07 56.3958C116.54 58.8587 114.759 62.3004 114.759 66.6424H115.514H116.268C116.268 62.7871 117.813 59.8102 120.933 57.6331L120.502 57.0144ZM115.514 66.6424H114.759C114.759 70.6276 116.155 73.7344 119.011 75.8341L119.458 75.2264L119.905 74.6187C117.501 72.8517 116.268 70.2359 116.268 66.6424H115.514ZM119.458 75.2264L119.011 75.8341C121.8 77.8847 125.332 78.8807 129.55 78.8807V78.1264V77.3721C125.57 77.3721 122.374 76.4348 119.905 74.6187L119.458 75.2264ZM209.573 28.7104L209.04 29.2438L209.046 29.2494L209.573 28.7104ZM204.817 33.1184L204.27 33.6372L204.277 33.6445L204.817 33.1184ZM182.661 33.0024L183.187 33.5431L183.195 33.5358L182.661 33.0024ZM178.485 31.3784L177.952 31.9118L178.173 32.1327H178.485V31.3784ZM178.833 31.1464L178.206 30.728L178.18 30.7671L178.159 30.8091L178.833 31.1464ZM185.561 25.3464L185.883 26.0285L185.891 26.0249L185.899 26.0211L185.561 25.3464ZM195.189 23.2584V24.0127C200.978 24.0127 205.569 25.7731 209.04 29.2438L209.573 28.7104L210.107 28.177C206.308 24.3784 201.31 22.5041 195.189 22.5041V23.2584ZM209.573 28.7104L209.046 29.2494C212.591 32.7211 214.387 37.3103 214.387 43.0944H215.141H215.896C215.896 36.9692 213.98 31.9691 210.101 28.1715L209.573 28.7104ZM215.141 43.0944H214.387V81.3744H215.141H215.896V43.0944H215.141ZM215.141 81.3744H214.387C214.387 81.6448 214.32 81.7091 214.318 81.711C214.316 81.713 214.252 81.7801 213.981 81.7801V82.5344V83.2887C214.484 83.2887 215 83.1625 215.385 82.7778C215.769 82.3931 215.896 81.8774 215.896 81.3744H215.141ZM213.981 82.5344V81.7801H210.153V82.5344V83.2887H213.981V82.5344ZM210.153 82.5344V81.7801C209.883 81.7801 209.819 81.713 209.817 81.711C209.815 81.7091 209.748 81.6448 209.748 81.3744H208.993H208.239C208.239 81.8774 208.365 82.3931 208.75 82.7778C209.135 83.1625 209.65 83.2887 210.153 83.2887V82.5344ZM208.993 81.3744H209.748V44.2544H208.993H208.239V81.3744H208.993ZM208.993 44.2544H209.748C209.748 39.5256 208.299 35.6149 205.358 32.5924L204.817 33.1184L204.277 33.6445C206.904 36.3446 208.239 39.8579 208.239 44.2544H208.993ZM204.817 33.1184L205.365 32.5996C202.422 29.4935 198.581 27.9561 193.913 27.9561V28.7104V29.4647C198.216 29.4647 201.644 30.866 204.27 33.6372L204.817 33.1184ZM193.913 28.7104V27.9561C189.105 27.9561 185.152 29.4452 182.128 32.469L182.661 33.0024L183.195 33.5358C185.894 30.837 189.442 29.4647 193.913 29.4647V28.7104ZM182.661 33.0024L182.135 32.4618C179.107 35.4085 177.615 39.2879 177.615 44.0224H178.369H179.124C179.124 39.6316 180.493 36.1643 183.187 33.5431L182.661 33.0024ZM178.369 44.0224H177.615V81.3744H178.369H179.124V44.0224H178.369ZM178.369 81.3744H177.615C177.615 81.6448 177.548 81.7091 177.546 81.711C177.544 81.713 177.48 81.7801 177.209 81.7801V82.5344V83.2887C177.712 83.2887 178.228 83.1625 178.613 82.7778C178.997 82.3931 179.124 81.8774 179.124 81.3744H178.369ZM177.209 82.5344V81.7801H173.381V82.5344V83.2887H177.209V82.5344ZM173.381 82.5344V81.7801C173.111 81.7801 173.047 81.713 173.045 81.711C173.043 81.7091 172.976 81.6448 172.976 81.3744H172.221H171.467C171.467 81.8774 171.593 82.3931 171.978 82.7778C172.363 83.1625 172.878 83.2887 173.381 83.2887V82.5344ZM172.221 81.3744H172.976V25.2304H172.221H171.467V81.3744H172.221ZM172.221 25.2304H172.976C172.976 24.96 173.043 24.8958 173.045 24.8938C173.047 24.8918 173.111 24.8247 173.381 24.8247V24.0704V23.3161C172.878 23.3161 172.363 23.4423 171.978 23.827C171.593 24.2117 171.467 24.7275 171.467 25.2304H172.221ZM173.381 24.0704V24.8247H177.209V24.0704V23.3161H173.381V24.0704ZM177.209 24.0704V24.8247C177.48 24.8247 177.544 24.8918 177.546 24.8938C177.548 24.8958 177.615 24.96 177.615 25.2304H178.369H179.124C179.124 24.7275 178.997 24.2117 178.613 23.827C178.228 23.4423 177.712 23.3161 177.209 23.3161V24.0704ZM178.369 25.2304H177.615V30.9144H178.369H179.124V25.2304H178.369ZM178.369 30.9144H177.615C177.615 31.0668 177.627 31.2299 177.667 31.3874C177.705 31.5403 177.782 31.742 177.952 31.9118L178.485 31.3784L179.019 30.845C179.066 30.8926 179.094 30.9382 179.109 30.9686C179.124 30.9985 179.129 31.0184 179.13 31.0215C179.131 31.0249 179.129 31.0184 179.127 30.9989C179.125 30.9797 179.124 30.952 179.124 30.9144H178.369ZM178.485 31.3784V32.1327C178.695 32.1327 178.912 32.0782 179.107 31.9481C179.297 31.821 179.425 31.6506 179.508 31.4838L178.833 31.1464L178.159 30.8091C178.165 30.7969 178.195 30.7425 178.27 30.6928C178.349 30.6399 178.431 30.6241 178.485 30.6241V31.3784ZM178.833 31.1464L179.461 31.5648C181.086 29.1273 183.223 27.2849 185.883 26.0285L185.561 25.3464L185.239 24.6643C182.332 26.0373 179.983 28.0615 178.206 30.728L178.833 31.1464ZM185.561 25.3464L185.899 26.0211C188.562 24.6896 191.652 24.0127 195.189 24.0127V23.2584V22.5041C191.457 22.5041 188.129 23.2192 185.224 24.6717L185.561 25.3464ZM269.812 75.3424L269.278 75.8758L269.499 76.0967H269.812V75.3424ZM269.464 75.4584L268.93 74.925L268.872 74.9836L268.827 75.0534L269.464 75.4584ZM262.968 81.3744L262.623 80.7036V80.7036L262.968 81.3744ZM240.464 79.2864L240.923 78.6876V78.6876L240.464 79.2864ZM233.04 68.0344L233.766 67.8319L233.764 67.8233L233.761 67.8148L233.04 68.0344ZM231.996 62.1184L231.243 62.1703L231.243 62.1722L231.996 62.1184ZM231.996 44.8344L232.748 44.8863V44.8863L231.996 44.8344ZM232.924 38.8024L233.654 38.9929L233.657 38.9798L232.924 38.8024ZM240.116 27.4344L240.575 28.0333L240.576 28.0319L240.116 27.4344ZM262.968 25.2304L262.623 25.9012V25.9012L262.968 25.2304ZM269.464 31.1464L270.179 30.9079L270.15 30.8198L270.1 30.7414L269.464 31.1464ZM269.812 31.4944V32.2487H269.99L270.149 32.1691L269.812 31.4944ZM268.536 67.1064L267.828 66.8456L267.818 66.8721L267.811 66.8992L268.536 67.1064ZM269.58 62.1184L268.831 62.0249L268.829 62.0403L268.828 62.0558L269.58 62.1184ZM269.58 44.4864L268.831 44.5763L268.831 44.58L269.58 44.4864ZM268.42 39.2664L267.691 39.4619L267.699 39.4891L267.708 39.5156L268.42 39.2664ZM263.432 31.6104L262.947 32.1884L262.957 32.1968L262.967 32.2048L263.432 31.6104ZM245.104 31.6104L245.551 32.2181L245.556 32.2139L245.562 32.2096L245.104 31.6104ZM239.768 39.1504L240.45 39.4733L240.474 39.4218L240.49 39.3672L239.768 39.1504ZM238.26 44.2544L237.515 44.1352L237.513 44.148L237.511 44.1609L238.26 44.2544ZM238.26 62.1184L237.511 62.212L237.512 62.216L238.26 62.1184ZM239.42 67.1064L240.154 66.9317L240.145 66.8939L240.132 66.8572L239.42 67.1064ZM244.64 74.9944L245.09 74.3889V74.3889L244.64 74.9944ZM263.432 74.9944L262.956 74.4089L262.947 74.4165L263.432 74.9944ZM270.044 2.49442H270.798C270.798 2.22402 270.865 2.15978 270.867 2.15781C270.869 2.15583 270.933 2.08874 271.204 2.08874V1.33442V0.580093C270.701 0.580093 270.185 0.706345 269.8 1.09103C269.416 1.47572 269.29 1.99148 269.29 2.49442H270.044ZM271.204 1.33442V2.08874H275.032V1.33442V0.580093H271.204V1.33442ZM275.032 1.33442V2.08874C275.302 2.08874 275.366 2.15583 275.368 2.15781C275.37 2.15978 275.438 2.22402 275.438 2.49442H276.192H276.946C276.946 1.99148 276.82 1.47572 276.435 1.09103C276.051 0.706345 275.535 0.580093 275.032 0.580093V1.33442ZM276.192 2.49442H275.438V81.3744H276.192H276.946V2.49442H276.192ZM276.192 81.3744H275.438C275.438 81.6448 275.37 81.7091 275.368 81.711C275.366 81.713 275.302 81.7801 275.032 81.7801V82.5344V83.2887C275.535 83.2887 276.051 83.1625 276.435 82.7778C276.82 82.3931 276.946 81.8774 276.946 81.3744H276.192ZM275.032 82.5344V81.7801H271.204V82.5344V83.2887H275.032V82.5344ZM271.204 82.5344V81.7801C270.933 81.7801 270.869 81.713 270.867 81.711C270.865 81.7091 270.798 81.6448 270.798 81.3744H270.044H269.29C269.29 81.8774 269.416 82.3931 269.8 82.7778C270.185 83.1625 270.701 83.2887 271.204 83.2887V82.5344ZM270.044 81.3744H270.798V75.6904H270.044H269.29V81.3744H270.044ZM270.044 75.6904H270.798C270.798 75.5144 270.773 75.2505 270.613 75.011C270.418 74.7175 270.109 74.5881 269.812 74.5881V75.3424V76.0967C269.756 76.0967 269.67 76.0859 269.576 76.0389C269.479 75.9903 269.406 75.9196 269.358 75.8478C269.276 75.7243 269.29 75.6344 269.29 75.6904H270.044ZM269.812 75.3424L270.345 74.809C270.233 74.6964 270.08 74.6037 269.895 74.5665C269.714 74.5304 269.552 74.5565 269.428 74.5978C269.203 74.6729 269.035 74.8205 268.93 74.925L269.464 75.4584L269.997 75.9918C270.047 75.9417 270.015 75.9926 269.905 76.029C269.839 76.051 269.731 76.0723 269.599 76.0458C269.461 76.0183 269.352 75.9498 269.278 75.8758L269.812 75.3424ZM269.464 75.4584L268.827 75.0534C267.276 77.4918 265.211 79.3724 262.623 80.7036L262.968 81.3744L263.313 82.0452C266.138 80.5924 268.404 78.529 270.1 75.8634L269.464 75.4584ZM262.968 81.3744L262.623 80.7036C260.035 82.0345 257.101 82.7081 253.804 82.7081V83.4624V84.2167C257.312 84.2167 260.487 83.4983 263.313 82.0452L262.968 81.3744ZM253.804 83.4624V82.7081C248.685 82.7081 244.406 81.3561 240.923 78.6876L240.464 79.2864L240.005 79.8853C243.791 82.7847 248.405 84.2167 253.804 84.2167V83.4624ZM240.464 79.2864L240.923 78.6876C237.427 76.0103 235.04 72.4033 233.766 67.8319L233.04 68.0344L232.313 68.2369C233.669 73.1003 236.231 76.9946 240.005 79.8853L240.464 79.2864ZM233.04 68.0344L233.761 67.8148C233.239 66.0982 232.9 64.1829 232.748 62.0647L231.996 62.1184L231.243 62.1722C231.401 64.3846 231.758 66.4133 232.318 68.2541L233.04 68.0344ZM231.996 62.1184L232.748 62.0665C232.595 59.848 232.518 56.9671 232.518 53.4184H231.764H231.01C231.01 56.9844 231.087 59.9035 231.243 62.1703L231.996 62.1184ZM231.764 53.4184H232.518C232.518 49.9475 232.595 47.1051 232.748 44.8863L231.996 44.8344L231.243 44.7825C231.087 47.0491 231.01 49.9294 231.01 53.4184H231.764ZM231.996 44.8344L232.748 44.8863C232.9 42.6805 233.204 40.7174 233.654 38.9928L232.924 38.8024L232.194 38.612C231.716 40.4447 231.401 42.503 231.243 44.7825L231.996 44.8344ZM232.924 38.8024L233.657 38.9798C234.78 34.339 237.088 30.7039 240.575 28.0333L240.116 27.4344L239.657 26.8356C235.875 29.7329 233.388 33.6765 232.191 38.625L232.924 38.8024ZM240.116 27.4344L240.576 28.0319C244.137 25.2876 248.53 23.8967 253.804 23.8967V23.1424V22.3881C248.251 22.3881 243.519 23.8586 239.655 26.837L240.116 27.4344ZM253.804 23.1424V23.8967C257.101 23.8967 260.035 24.5703 262.623 25.9012L262.968 25.2304L263.313 24.5596C260.487 23.1065 257.312 22.3881 253.804 22.3881V23.1424ZM262.968 25.2304L262.623 25.9012C265.211 27.2324 267.276 29.113 268.827 31.5514L269.464 31.1464L270.1 30.7414C268.404 28.0758 266.138 26.0124 263.313 24.5596L262.968 25.2304ZM269.464 31.1464L268.748 31.385C268.858 31.7155 269.156 32.2487 269.812 32.2487V31.4944V30.7401C269.87 30.7401 269.935 30.7516 270 30.7793C270.064 30.8067 270.111 30.8429 270.142 30.874C270.198 30.9294 270.198 30.9628 270.179 30.9079L269.464 31.1464ZM269.812 31.4944L270.149 32.1691C270.647 31.92 270.798 31.4342 270.798 31.0304H270.044H269.29C269.29 31.0675 269.283 31.04 269.311 30.9831C269.326 30.9532 269.349 30.9199 269.38 30.8885C269.411 30.8572 269.445 30.8347 269.474 30.8197L269.812 31.4944ZM270.044 31.0304H270.798V2.49442H270.044H269.29V31.0304H270.044ZM268.536 67.1064L269.244 67.3672C269.812 65.8234 270.172 64.0924 270.332 62.1811L269.58 62.1184L268.828 62.0558C268.678 63.8565 268.342 65.4508 267.828 66.8456L268.536 67.1064ZM269.58 62.1184L270.328 62.212C270.566 60.3067 270.682 57.3673 270.682 53.4184H269.928H269.174C269.174 57.3575 269.057 60.2181 268.831 62.0249L269.58 62.1184ZM269.928 53.4184H270.682C270.682 49.3163 270.567 46.2988 270.328 44.3929L269.58 44.4864L268.831 44.58C269.057 46.3861 269.174 49.3232 269.174 53.4184H269.928ZM269.58 44.4864L270.329 44.3965C270.091 42.4188 269.694 40.6241 269.132 39.0172L268.42 39.2664L267.708 39.5156C268.228 41.0021 268.604 42.6874 268.831 44.5763L269.58 44.4864ZM268.42 39.2664L269.148 39.071C268.257 35.7498 266.506 33.0549 263.896 31.016L263.432 31.6104L262.967 32.2048C265.307 34.0326 266.881 36.4417 267.691 39.4619L268.42 39.2664ZM263.432 31.6104L263.917 31.0325C261.365 28.8924 258.209 27.8401 254.5 27.8401V28.5944V29.3487C257.906 29.3487 260.704 30.3072 262.947 32.1884L263.432 31.6104ZM254.5 28.5944V27.8401C250.717 27.8401 247.42 28.89 244.646 31.0112L245.104 31.6104L245.562 32.2096C248.047 30.3095 251.014 29.3487 254.5 29.3487V28.5944ZM245.104 31.6104L244.657 31.0027C241.897 33.0319 240.021 35.6818 239.045 38.9337L239.768 39.1504L240.49 39.3672C241.371 36.4324 243.052 34.0556 245.551 32.2181L245.104 31.6104ZM239.768 39.1504L239.086 38.8275C238.354 40.373 237.833 42.1452 237.515 44.1352L238.26 44.2544L239.005 44.3736C239.305 42.4969 239.79 40.8665 240.45 39.4733L239.768 39.1504ZM238.26 44.2544L237.511 44.1609C237.273 46.0671 237.158 49.1236 237.158 53.3024H237.912H238.666C238.666 49.1292 238.783 46.1537 239.008 44.348L238.26 44.2544ZM237.912 53.3024H237.158C237.158 57.328 237.273 60.3064 237.511 62.212L238.26 62.1184L239.008 62.0249C238.783 60.2185 238.666 57.3196 238.666 53.3024H237.912ZM238.26 62.1184L237.512 62.216C237.75 64.0415 238.148 65.7554 238.708 67.3556L239.42 67.1064L240.132 66.8572C239.609 65.3641 239.234 63.7527 239.008 62.0209L238.26 62.1184ZM239.42 67.1064L238.686 67.2811C239.501 70.7035 241.343 73.4847 244.19 75.6L244.64 74.9944L245.09 74.3889C242.524 72.4828 240.885 70.0053 240.154 66.9317L239.42 67.1064ZM244.64 74.9944L244.19 75.6C247.043 77.7191 250.453 78.7647 254.384 78.7647V78.0104V77.2561C250.736 77.2561 247.65 76.2911 245.09 74.3889L244.64 74.9944ZM254.384 78.0104V78.7647C258.166 78.7647 261.362 77.715 263.917 75.5724L263.432 74.9944L262.947 74.4165C260.707 76.2952 257.871 77.2561 254.384 77.2561V78.0104ZM263.432 74.9944L263.908 75.5799C266.509 73.4657 268.293 70.701 269.261 67.3137L268.536 67.1064L267.811 66.8992C266.922 70.0079 265.303 72.5018 262.956 74.409L263.432 74.9944ZM296.958 10.7304L297.491 10.197V10.197L296.958 10.7304ZM296.958 2.37842L297.491 2.9118V2.9118L296.958 2.37842ZM301.134 12.3544V11.6001C299.608 11.6001 298.416 11.1219 297.491 10.197L296.958 10.7304L296.424 11.2638C297.665 12.5043 299.257 13.1087 301.134 13.1087V12.3544ZM296.958 10.7304L297.491 10.197C296.566 9.27218 296.088 8.08006 296.088 6.55442H295.334H294.579C294.579 8.43145 295.184 10.0233 296.424 11.2638L296.958 10.7304ZM295.334 6.55442H296.088C296.088 5.02878 296.566 3.83666 297.491 2.9118L296.958 2.37842L296.424 1.84503C295.184 3.0855 294.579 4.67739 294.579 6.55442H295.334ZM296.958 2.37842L297.491 2.9118C298.416 1.98695 299.608 1.50874 301.134 1.50874V0.754417V9.91821e-05C299.257 9.91821e-05 297.665 0.604561 296.424 1.84503L296.958 2.37842ZM301.134 0.754417V1.50874C302.659 1.50874 303.851 1.98695 304.776 2.9118L305.31 2.37842L305.843 1.84503C304.603 0.604561 303.011 9.91821e-05 301.134 9.91821e-05V0.754417ZM305.31 2.37842L304.776 2.9118C305.701 3.83666 306.179 5.02878 306.179 6.55442H306.934H307.688C307.688 4.67739 307.083 3.0855 305.843 1.84503L305.31 2.37842ZM306.934 6.55442H306.179C306.179 8.08006 305.701 9.27218 304.776 10.197L305.31 10.7304L305.843 11.2638C307.083 10.0233 307.688 8.43145 307.688 6.55442H306.934ZM305.31 10.7304L304.776 10.197C303.851 11.1219 302.659 11.6001 301.134 11.6001V12.3544V13.1087C303.011 13.1087 304.603 12.5043 305.843 11.2638L305.31 10.7304ZM298.93 82.4184V81.6641C298.659 81.6641 298.595 81.597 298.593 81.595C298.591 81.5931 298.524 81.5288 298.524 81.2584H297.77H297.015C297.015 81.7614 297.142 82.2771 297.526 82.6618C297.911 83.0465 298.427 83.1727 298.93 83.1727V82.4184ZM297.77 81.2584H298.524V25.1144H297.77H297.015V81.2584H297.77ZM297.77 25.1144H298.524C298.524 24.844 298.591 24.7798 298.593 24.7778C298.595 24.7758 298.659 24.7087 298.93 24.7087V23.9544V23.2001C298.427 23.2001 297.911 23.3263 297.526 23.711C297.142 24.0957 297.015 24.6115 297.015 25.1144H297.77ZM298.93 23.9544V24.7087H302.758V23.9544V23.2001H298.93V23.9544ZM302.758 23.9544V24.7087C303.028 24.7087 303.092 24.7758 303.094 24.7778C303.096 24.7798 303.163 24.844 303.163 25.1144H303.918H304.672C304.672 24.6115 304.546 24.0957 304.161 23.711C303.776 23.3263 303.261 23.2001 302.758 23.2001V23.9544ZM303.918 25.1144H303.163V81.2584H303.918H304.672V25.1144H303.918ZM303.918 81.2584H303.163C303.163 81.5288 303.096 81.5931 303.094 81.595C303.092 81.597 303.028 81.6641 302.758 81.6641V82.4184V83.1727C303.261 83.1727 303.776 83.0465 304.161 82.6618C304.546 82.2771 304.672 81.7614 304.672 81.2584H303.918ZM302.758 82.4184V81.6641H298.93V82.4184V83.1727H302.758V82.4184ZM363.409 28.7104L362.876 29.2438L362.882 29.2494L363.409 28.7104ZM358.653 33.1184L358.106 33.6372L358.113 33.6445L358.653 33.1184ZM336.497 33.0024L337.023 33.5431L337.031 33.5358L336.497 33.0024ZM332.321 31.3784L331.788 31.9118L332.009 32.1327H332.321V31.3784ZM332.669 31.1464L332.042 30.728L332.016 30.7671L331.995 30.8091L332.669 31.1464ZM339.397 25.3464L339.719 26.0285L339.727 26.0249L339.735 26.0211L339.397 25.3464ZM349.025 23.2584V24.0127C354.814 24.0127 359.405 25.7731 362.876 29.2438L363.409 28.7104L363.943 28.177C360.144 24.3784 355.146 22.5041 349.025 22.5041V23.2584ZM363.409 28.7104L362.882 29.2494C366.427 32.7211 368.223 37.3103 368.223 43.0944H368.977H369.732C369.732 36.9692 367.816 31.9691 363.937 28.1715L363.409 28.7104ZM368.977 43.0944H368.223V81.3744H368.977H369.732V43.0944H368.977ZM368.977 81.3744H368.223C368.223 81.6448 368.156 81.7091 368.154 81.711C368.152 81.713 368.088 81.7801 367.817 81.7801V82.5344V83.2887C368.32 83.2887 368.836 83.1625 369.221 82.7778C369.605 82.3931 369.732 81.8774 369.732 81.3744H368.977ZM367.817 82.5344V81.7801H363.989V82.5344V83.2887H367.817V82.5344ZM363.989 82.5344V81.7801C363.719 81.7801 363.655 81.713 363.653 81.711C363.651 81.7091 363.584 81.6448 363.584 81.3744H362.829H362.075C362.075 81.8774 362.201 82.3931 362.586 82.7778C362.971 83.1625 363.486 83.2887 363.989 83.2887V82.5344ZM362.829 81.3744H363.584V44.2544H362.829H362.075V81.3744H362.829ZM362.829 44.2544H363.584C363.584 39.5256 362.135 35.6149 359.194 32.5924L358.653 33.1184L358.113 33.6445C360.74 36.3446 362.075 39.8579 362.075 44.2544H362.829ZM358.653 33.1184L359.201 32.5996C356.258 29.4935 352.417 27.9561 347.749 27.9561V28.7104V29.4647C352.052 29.4647 355.48 30.866 358.106 33.6372L358.653 33.1184ZM347.749 28.7104V27.9561C342.941 27.9561 338.988 29.4452 335.964 32.469L336.497 33.0024L337.031 33.5358C339.73 30.837 343.278 29.4647 347.749 29.4647V28.7104ZM336.497 33.0024L335.971 32.4618C332.943 35.4085 331.451 39.2879 331.451 44.0224H332.205H332.96C332.96 39.6316 334.329 36.1643 337.023 33.5431L336.497 33.0024ZM332.205 44.0224H331.451V81.3744H332.205H332.96V44.0224H332.205ZM332.205 81.3744H331.451C331.451 81.6448 331.384 81.7091 331.382 81.711C331.38 81.713 331.316 81.7801 331.045 81.7801V82.5344V83.2887C331.548 83.2887 332.064 83.1625 332.449 82.7778C332.833 82.3931 332.96 81.8774 332.96 81.3744H332.205ZM331.045 82.5344V81.7801H327.217V82.5344V83.2887H331.045V82.5344ZM327.217 82.5344V81.7801C326.947 81.7801 326.883 81.713 326.881 81.711C326.879 81.7091 326.812 81.6448 326.812 81.3744H326.057H325.303C325.303 81.8774 325.429 82.3931 325.814 82.7778C326.199 83.1625 326.714 83.2887 327.217 83.2887V82.5344ZM326.057 81.3744H326.812V25.2304H326.057H325.303V81.3744H326.057ZM326.057 25.2304H326.812C326.812 24.96 326.879 24.8958 326.881 24.8938C326.883 24.8918 326.947 24.8247 327.217 24.8247V24.0704V23.3161C326.714 23.3161 326.199 23.4423 325.814 23.827C325.429 24.2117 325.303 24.7275 325.303 25.2304H326.057ZM327.217 24.0704V24.8247H331.045V24.0704V23.3161H327.217V24.0704ZM331.045 24.0704V24.8247C331.316 24.8247 331.38 24.8918 331.382 24.8938C331.384 24.8958 331.451 24.96 331.451 25.2304H332.205H332.96C332.96 24.7275 332.833 24.2117 332.449 23.827C332.064 23.4423 331.548 23.3161 331.045 23.3161V24.0704ZM332.205 25.2304H331.451V30.9144H332.205H332.96V25.2304H332.205ZM332.205 30.9144H331.451C331.451 31.0668 331.463 31.2299 331.503 31.3874C331.541 31.5403 331.618 31.742 331.788 31.9118L332.321 31.3784L332.855 30.845C332.902 30.8926 332.93 30.9382 332.945 30.9686C332.96 30.9985 332.965 31.0184 332.966 31.0215C332.967 31.0249 332.965 31.0184 332.963 30.9989C332.961 30.9797 332.96 30.952 332.96 30.9144H332.205ZM332.321 31.3784V32.1327C332.531 32.1327 332.747 32.0782 332.943 31.9481C333.133 31.821 333.261 31.6506 333.344 31.4838L332.669 31.1464L331.995 30.8091C332.001 30.7969 332.031 30.7425 332.106 30.6928C332.185 30.6399 332.267 30.6241 332.321 30.6241V31.3784ZM332.669 31.1464L333.297 31.5648C334.922 29.1273 337.059 27.2849 339.719 26.0285L339.397 25.3464L339.075 24.6643C336.168 26.0373 333.819 28.0615 332.042 30.728L332.669 31.1464ZM339.397 25.3464L339.735 26.0211C342.398 24.6896 345.488 24.0127 349.025 24.0127V23.2584V22.5041C345.293 22.5041 341.965 23.2192 339.06 24.6717L339.397 25.3464ZM422.814 100.282L422.361 99.679V99.679L422.814 100.282ZM400.542 105.618L400.467 106.369L400.489 106.371L400.512 106.372L400.542 105.618ZM399.382 104.342L398.628 104.316L398.628 104.329V104.342H399.382ZM399.498 100.978L400.252 101.004L400.252 100.991V100.978H399.498ZM400.658 99.8184L400.686 99.0646L400.672 99.0641H400.658V99.8184ZM418.754 95.6424L418.29 95.0476L418.283 95.0528L418.277 95.0581L418.754 95.6424ZM424.322 74.9944L423.789 75.5278L424.01 75.7487H424.322V74.9944ZM423.974 75.1104L423.441 74.577L423.385 74.6326L423.342 74.6984L423.974 75.1104ZM394.858 79.0544L394.411 79.6624L394.42 79.6682L394.858 79.0544ZM387.318 67.6864L388.048 67.4979L388.047 67.491L387.318 67.6864ZM387.434 38.4544L388.158 38.6663L388.16 38.6591L388.162 38.6519L387.434 38.4544ZM394.742 27.4344L395.201 28.0333L395.209 28.0271L394.742 27.4344ZM423.974 31.0304L424.649 30.6931L424.625 30.6454L424.595 30.6015L423.974 31.0304ZM424.322 31.1464L424.659 31.8211V31.8211L424.322 31.1464ZM423.974 65.4824L423.234 65.3345L423.232 65.3438L423.231 65.3532L423.974 65.4824ZM424.438 61.1904L425.192 61.2247V61.2247L424.438 61.1904ZM424.438 45.4144L425.192 45.3802V45.3802L424.438 45.4144ZM423.974 40.8904L423.231 41.0197L423.231 41.0215L423.974 40.8904ZM418.986 32.0744L418.487 32.6401L418.495 32.6471L418.986 32.0744ZM398.802 32.0744L398.319 31.4949L398.311 31.5017L398.802 32.0744ZM393.234 40.8904L393.957 41.1072L393.96 41.0956L393.234 40.8904ZM393.234 65.4824L393.968 65.307L393.964 65.2925L393.96 65.2782L393.234 65.4824ZM398.686 74.2984L398.203 74.878L398.211 74.8843L398.686 74.2984ZM419.102 74.2984L418.603 73.7327L418.595 73.7403L419.102 74.2984ZM424.554 25.2304H425.308C425.308 24.96 425.375 24.8958 425.377 24.8938C425.379 24.8918 425.444 24.8247 425.714 24.8247V24.0704V23.3161C425.211 23.3161 424.695 23.4423 424.311 23.827C423.926 24.2117 423.8 24.7275 423.8 25.2304H424.554ZM425.714 24.0704V24.8247H429.542V24.0704V23.3161H425.714V24.0704ZM429.542 24.0704V24.8247C429.812 24.8247 429.877 24.8918 429.879 24.8938C429.881 24.8958 429.948 24.96 429.948 25.2304H430.702H431.456C431.456 24.7275 431.33 24.2117 430.945 23.827C430.561 23.4423 430.045 23.3161 429.542 23.3161V24.0704ZM430.702 25.2304H429.948V81.2584H430.702H431.456V25.2304H430.702ZM430.702 81.2584H429.948C429.948 89.8446 427.371 95.9216 422.361 99.679L422.814 100.282L423.267 100.886C428.774 96.7552 431.456 90.1496 431.456 81.2584H430.702ZM422.814 100.282L422.361 99.679C417.293 103.48 410.066 105.248 400.572 104.865L400.542 105.618L400.512 106.372C410.197 106.763 417.818 104.973 423.267 100.886L422.814 100.282ZM400.542 105.618L400.617 104.868C400.35 104.841 400.26 104.766 400.23 104.734C400.201 104.702 400.136 104.607 400.136 104.342H399.382H398.628C398.628 104.851 398.756 105.355 399.114 105.749C399.471 106.142 399.961 106.318 400.467 106.369L400.542 105.618ZM399.382 104.342L400.136 104.368L400.252 101.004L399.498 100.978L398.744 100.952L398.628 104.316L399.382 104.342ZM399.498 100.978H400.252C400.252 100.708 400.319 100.644 400.321 100.642C400.323 100.64 400.388 100.573 400.658 100.573V99.8184V99.0641C400.155 99.0641 399.639 99.1904 399.255 99.575C398.87 99.9597 398.744 100.475 398.744 100.978H399.498ZM400.658 99.8184L400.63 100.572C408.971 100.884 415.229 99.4935 419.231 96.2268L418.754 95.6424L418.277 95.0581C414.7 97.9781 408.895 99.3715 400.686 99.0646L400.658 99.8184ZM418.754 95.6424L419.218 96.2372C423.328 93.0314 425.308 87.9369 425.308 81.1424H424.554H423.8C423.8 87.6493 421.913 92.2214 418.29 95.0476L418.754 95.6424ZM424.554 81.1424H425.308V75.3424H424.554H423.8V81.1424H424.554ZM424.554 75.3424H425.308C425.308 75.1664 425.283 74.9025 425.124 74.663C424.928 74.3695 424.619 74.2401 424.322 74.2401V74.9944V75.7487C424.266 75.7487 424.18 75.7379 424.086 75.6909C423.989 75.6423 423.916 75.5716 423.868 75.4998C423.786 75.3763 423.8 75.2864 423.8 75.3424H424.554ZM424.322 74.9944L424.855 74.461C424.743 74.3484 424.591 74.2557 424.405 74.2185C424.224 74.1824 424.062 74.2085 423.938 74.2498C423.713 74.3249 423.545 74.4725 423.441 74.577L423.974 75.1104L424.507 75.6438C424.557 75.5937 424.525 75.6446 424.416 75.681C424.35 75.703 424.241 75.7243 424.109 75.6978C423.971 75.6703 423.863 75.6018 423.789 75.5278L424.322 74.9944ZM423.974 75.1104L423.342 74.6984C420.02 79.793 414.977 82.3601 408.082 82.3601V83.1144V83.8687C415.416 83.8687 420.968 81.0998 424.606 75.5225L423.974 75.1104ZM408.082 83.1144V82.3601C403.199 82.3601 398.948 81.0485 395.296 78.4406L394.858 79.0544L394.42 79.6682C398.347 82.4737 402.911 83.8687 408.082 83.8687V83.1144ZM394.858 79.0544L395.305 78.4465C391.663 75.7712 389.245 72.1339 388.048 67.4979L387.318 67.6864L386.588 67.8749C387.866 72.8283 390.474 76.7696 394.411 79.6623L394.858 79.0544ZM387.318 67.6864L388.047 67.491C387.222 64.4185 386.796 59.743 386.796 53.4184H386.042H385.288C385.288 59.7766 385.712 64.613 386.589 67.8819L387.318 67.6864ZM386.042 53.4184H386.796C386.796 46.6257 387.262 41.7282 388.158 38.6663L387.434 38.4544L386.71 38.2425C385.75 41.522 385.288 46.6005 385.288 53.4184H386.042ZM387.434 38.4544L388.162 38.6519C389.358 34.2433 391.702 30.7132 395.201 28.0333L394.742 27.4344L394.283 26.8356C390.513 29.7237 387.985 33.5402 386.706 38.257L387.434 38.4544ZM394.742 27.4344L395.209 28.0271C398.696 25.2814 402.897 23.8967 407.85 23.8967V23.1424V22.3881C402.595 22.3881 398.057 23.8648 394.275 26.8417L394.742 27.4344ZM407.85 23.1424V23.8967C414.75 23.8967 419.877 26.4299 423.353 31.4593L423.974 31.0304L424.595 30.6015C420.801 25.1136 415.18 22.3881 407.85 22.3881V23.1424ZM423.974 31.0304L423.299 31.3678C423.39 31.5491 423.566 31.7861 423.88 31.891C424.195 31.9959 424.478 31.9118 424.659 31.8211L424.322 31.1464L423.985 30.4717C424.011 30.4584 424.159 30.3936 424.358 30.4598C424.556 30.5261 424.635 30.6664 424.649 30.6931L423.974 31.0304ZM424.322 31.1464L424.659 31.8211C424.826 31.7377 424.997 31.6104 425.124 31.4198C425.254 31.2246 425.308 31.0078 425.308 30.7984H424.554H423.8C423.8 30.7438 423.816 30.6623 423.868 30.583C423.918 30.5084 423.973 30.4778 423.985 30.4717L424.322 31.1464ZM424.554 30.7984H425.308V25.2304H424.554H423.8V30.7984H424.554ZM423.974 65.4824L424.714 65.6304C424.956 64.4205 425.113 62.9491 425.192 61.2247L424.438 61.1904L423.684 61.1562C423.608 62.8344 423.456 64.2243 423.234 65.3345L423.974 65.4824ZM424.438 61.1904L425.192 61.2247C425.27 59.5053 425.308 56.8617 425.308 53.3024H424.554H423.8C423.8 56.8578 423.761 59.4729 423.684 61.1562L424.438 61.1904ZM424.554 53.3024H425.308C425.308 49.7431 425.27 47.0995 425.192 45.3802L424.438 45.4144L423.684 45.4487C423.761 47.132 423.8 49.747 423.8 53.3024H424.554ZM424.438 45.4144L425.192 45.3802C425.113 43.6547 424.956 42.1133 424.717 40.7593L423.974 40.8904L423.231 41.0215C423.456 42.2969 423.608 43.7714 423.684 45.4487L424.438 45.4144ZM423.974 40.8904L424.717 40.7612C424.069 37.0336 422.318 33.9373 419.477 31.5017L418.986 32.0744L418.495 32.6471C421.067 34.8515 422.642 37.6325 423.231 41.0197L423.974 40.8904ZM418.986 32.0744L419.485 31.5088C416.698 29.0494 413.186 27.8401 409.01 27.8401V28.5944V29.3487C412.876 29.3487 416.016 30.4594 418.487 32.64L418.986 32.0744ZM409.01 28.5944V27.8401C404.833 27.8401 401.254 29.0494 398.319 31.4949L398.802 32.0744L399.285 32.6539C401.918 30.4594 405.145 29.3487 409.01 29.3487V28.5944ZM398.802 32.0744L398.311 31.5017C395.487 33.9221 393.552 36.9905 392.508 40.6853L393.234 40.8904L393.96 41.0956C394.926 37.6756 396.703 34.8667 399.293 32.6471L398.802 32.0744ZM393.234 40.8904L392.512 40.6737C391.78 43.111 391.436 47.3106 391.436 53.1864H392.19H392.944C392.944 47.3076 393.296 43.3098 393.957 41.1072L393.234 40.8904ZM392.19 53.1864H391.436C391.436 58.9149 391.782 63.1041 392.508 65.6867L393.234 65.4824L393.96 65.2782C393.295 62.9114 392.944 58.9033 392.944 53.1864H392.19ZM393.234 65.4824L392.5 65.6579C393.388 69.3718 395.293 72.4527 398.203 74.8779L398.686 74.2984L399.169 73.7189C396.511 71.5041 394.781 68.7077 393.968 65.307L393.234 65.4824ZM398.686 74.2984L398.211 74.8843C401.219 77.3235 404.833 78.5327 409.01 78.5327V77.7784V77.0241C405.145 77.0241 401.875 75.9133 399.161 73.7125L398.686 74.2984ZM409.01 77.7784V78.5327C413.332 78.5327 416.891 77.3282 419.609 74.8566L419.102 74.2984L418.595 73.7403C416.209 75.9086 413.04 77.0241 409.01 77.0241V77.7784ZM419.102 74.2984L419.601 74.864C422.363 72.427 424.07 69.3325 424.717 65.6117L423.974 65.4824L423.231 65.3532C422.641 68.747 421.1 71.5299 418.603 73.7328L419.102 74.2984Z" fill="#414042" mask="url(#path-1-outside-1_4086_1220)"/>
</svg>
