<svg width="502" height="85" viewBox="0 0 502 85" fill="none" xmlns="http://www.w3.org/2000/svg">
<mask id="path-1-outside-1_4095_3597" maskUnits="userSpaceOnUse" x="-0.0776367" y="-0.46582" width="502" height="85" fill="black">
<rect fill="white" x="-0.0776367" y="-0.46582" width="502" height="85"/>
<path d="M49.7064 2.49417C49.7064 1.72084 50.093 1.33417 50.8664 1.33417H54.6944C55.4677 1.33417 55.8544 1.72084 55.8544 2.49417V81.3742C55.8544 82.1475 55.4677 82.5342 54.6944 82.5342H50.8664C50.325 82.5342 49.861 82.2635 49.4744 81.7222L7.48236 13.6302C7.40503 13.3982 7.28903 13.3208 7.13436 13.3982C6.9797 13.3982 6.90236 13.5142 6.90236 13.7462V81.3742C6.90236 82.1475 6.5157 82.5342 5.74236 82.5342H1.91436C1.14103 82.5342 0.754364 82.1475 0.754364 81.3742V2.49417C0.754364 1.72084 1.14103 1.33417 1.91436 1.33417H5.85836C6.3997 1.33417 6.8637 1.60484 7.25036 2.14618L49.1264 70.2382C49.2037 70.4702 49.3197 70.5862 49.4744 70.5862C49.629 70.5088 49.7064 70.3542 49.7064 70.1222V2.49417ZM82.5008 12.3542C80.7995 12.3542 79.4075 11.8128 78.3248 10.7302C77.2422 9.64751 76.7008 8.25551 76.7008 6.55418C76.7008 4.85284 77.2422 3.46084 78.3248 2.37817C79.4075 1.29551 80.7995 0.754175 82.5008 0.754175C84.2022 0.754175 85.5942 1.29551 86.6768 2.37817C87.7595 3.46084 88.3008 4.85284 88.3008 6.55418C88.3008 8.25551 87.7595 9.64751 86.6768 10.7302C85.5942 11.8128 84.2022 12.3542 82.5008 12.3542ZM80.2968 82.4182C79.5235 82.4182 79.1368 82.0315 79.1368 81.2582V25.1142C79.1368 24.3408 79.5235 23.9542 80.2968 23.9542H84.1248C84.8982 23.9542 85.2848 24.3408 85.2848 25.1142V81.2582C85.2848 82.0315 84.8982 82.4182 84.1248 82.4182H80.2968ZM101.857 82.5342C101.393 82.5342 101.083 82.3795 100.929 82.0702C100.774 81.7608 100.851 81.4515 101.161 81.1422L120.533 53.6502C120.687 53.4182 120.687 53.1862 120.533 52.9542L101.161 25.4622C101.006 25.3075 100.929 25.0755 100.929 24.7662C100.929 24.6115 101.006 24.4568 101.161 24.3022C101.315 24.1475 101.547 24.0702 101.857 24.0702H105.917C106.535 24.0702 106.999 24.3022 107.309 24.7662L123.665 48.1982C123.742 48.2755 123.858 48.3142 124.013 48.3142C124.167 48.3142 124.283 48.2755 124.361 48.1982L140.601 24.7662C140.91 24.3022 141.374 24.0702 141.993 24.0702H146.401C146.865 24.0702 147.174 24.2248 147.329 24.5342C147.483 24.8435 147.406 25.1528 147.097 25.4622L127.725 52.9542C127.647 53.1862 127.647 53.4182 127.725 53.6502L147.097 81.1422C147.251 81.2968 147.329 81.5288 147.329 81.8382C147.329 81.9928 147.251 82.1475 147.097 82.3022C146.942 82.4568 146.71 82.5342 146.401 82.5342H142.225C141.606 82.5342 141.142 82.3022 140.833 81.8382L124.593 58.5222C124.515 58.3675 124.399 58.2902 124.245 58.2902C124.09 58.2902 123.974 58.3675 123.897 58.5222L107.541 81.8382C107.231 82.3022 106.767 82.5342 106.149 82.5342H101.857ZM165.763 12.3542C164.061 12.3542 162.669 11.8128 161.587 10.7302C160.504 9.64751 159.963 8.25551 159.963 6.55418C159.963 4.85284 160.504 3.46084 161.587 2.37817C162.669 1.29551 164.061 0.754175 165.763 0.754175C167.464 0.754175 168.856 1.29551 169.939 2.37817C171.021 3.46084 171.563 4.85284 171.563 6.55418C171.563 8.25551 171.021 9.64751 169.939 10.7302C168.856 11.8128 167.464 12.3542 165.763 12.3542ZM163.559 82.4182C162.785 82.4182 162.399 82.0315 162.399 81.2582V25.1142C162.399 24.3408 162.785 23.9542 163.559 23.9542H167.387C168.16 23.9542 168.547 24.3408 168.547 25.1142V81.2582C168.547 82.0315 168.16 82.4182 167.387 82.4182H163.559ZM212.494 78.0102C216.129 78.0102 219.222 77.1982 221.774 75.5742C224.404 73.8728 226.453 71.5528 227.922 68.6142C228.309 67.9182 228.812 67.7248 229.43 68.0342L232.446 69.5422C233.142 69.9288 233.336 70.4315 233.026 71.0502C231.325 74.8395 228.618 77.8555 224.906 80.0982C221.272 82.3408 216.98 83.4622 212.03 83.4622C206.617 83.4622 202.016 82.1475 198.226 79.5182C194.437 76.8888 191.846 73.2928 190.454 68.7302C189.836 66.7968 189.41 64.6315 189.178 62.2342C188.946 59.8368 188.83 56.8208 188.83 53.1862C188.83 49.3968 188.869 46.5355 188.946 44.6022C189.101 42.6688 189.372 40.8902 189.758 39.2662C190.996 34.3942 193.509 30.4888 197.298 27.5502C201.165 24.6115 205.882 23.1422 211.45 23.1422C217.792 23.1422 222.857 24.8048 226.646 28.1302C230.436 31.3782 232.794 35.9022 233.722 41.7022C233.954 43.1715 234.109 44.9115 234.186 46.9222C234.264 48.8555 234.302 51.2915 234.302 54.2302C234.302 55.0035 233.916 55.3902 233.142 55.3902H195.326C195.017 55.3902 194.862 55.5448 194.862 55.8542C194.862 60.8035 195.056 64.0902 195.442 65.7142C196.293 69.5035 198.188 72.5195 201.126 74.7622C204.142 76.9275 207.932 78.0102 212.494 78.0102ZM195.674 40.6582C195.288 42.1275 195.017 45.1435 194.862 49.7062C194.862 50.0155 195.017 50.1702 195.326 50.1702H227.69C228 50.1702 228.154 50.0155 228.154 49.7062C228.154 45.8395 227.961 42.9395 227.574 41.0062C226.724 37.2942 224.868 34.3168 222.006 32.0742C219.145 29.7542 215.626 28.5942 211.45 28.5942C207.274 28.5942 203.794 29.7155 201.01 31.9582C198.226 34.1235 196.448 37.0235 195.674 40.6582ZM278.321 82.5342C277.547 82.5342 277.161 82.1475 277.161 81.3742V2.49417C277.161 1.72084 277.547 1.33417 278.321 1.33417H305.233C312.657 1.33417 318.534 3.30617 322.865 7.25017C327.195 11.1168 329.361 16.4142 329.361 23.1422V60.7262C329.361 67.4542 327.195 72.7902 322.865 76.7342C318.534 80.6008 312.657 82.5342 305.233 82.5342H278.321ZM283.309 76.6182C283.309 76.9275 283.463 77.0822 283.773 77.0822H305.581C310.994 77.0822 315.247 75.5742 318.341 72.5582C321.511 69.4648 323.135 65.2888 323.213 60.0302V23.8382C323.213 18.5795 321.627 14.4422 318.457 11.4262C315.363 8.33284 311.071 6.78617 305.581 6.78617H283.773C283.463 6.78617 283.309 6.94084 283.309 7.25017V76.6182ZM368.24 83.4622C362.826 83.4622 358.186 82.0315 354.32 79.1702C350.453 76.3088 347.824 72.4808 346.432 67.6862C345.581 64.5928 345.156 59.7595 345.156 53.1862C345.156 46.6128 345.581 41.8182 346.432 38.8022C347.824 34.0075 350.414 30.2182 354.204 27.4342C358.07 24.5728 362.788 23.1422 368.356 23.1422C373.769 23.1422 378.409 24.5728 382.276 27.4342C386.22 30.2955 388.849 34.0848 390.164 38.8022C390.628 40.5808 390.937 42.5915 391.092 44.8342C391.246 46.9995 391.324 49.7835 391.324 53.1862C391.324 56.7435 391.246 59.6048 391.092 61.7702C390.937 63.9355 390.628 65.9075 390.164 67.6862C388.849 72.4808 386.22 76.3088 382.276 79.1702C378.409 82.0315 373.73 83.4622 368.24 83.4622ZM368.24 78.0102C372.338 78.0102 375.818 76.8888 378.68 74.6462C381.618 72.3262 383.513 69.3102 384.364 65.5982C384.905 63.5102 385.176 59.4115 385.176 53.3022C385.176 47.1155 384.944 43.0168 384.48 41.0062C383.629 37.2168 381.734 34.2008 378.796 31.9582C375.934 29.7155 372.416 28.5942 368.24 28.5942C364.064 28.5942 360.545 29.7155 357.684 31.9582C354.822 34.2008 352.966 37.2168 352.116 41.0062C351.574 43.4035 351.304 47.5022 351.304 53.3022C351.304 59.1022 351.574 63.2008 352.116 65.5982C352.966 69.3875 354.822 72.4035 357.684 74.6462C360.545 76.8888 364.064 78.0102 368.24 78.0102ZM410.819 82.5342C410.046 82.5342 409.659 82.1475 409.659 81.3742V2.49417C409.659 1.72084 410.046 1.33417 410.819 1.33417H414.647C415.42 1.33417 415.807 1.72084 415.807 2.49417V81.3742C415.807 82.1475 415.42 82.5342 414.647 82.5342H410.819ZM436.987 82.5342C436.214 82.5342 435.827 82.1475 435.827 81.3742V2.49417C435.827 1.72084 436.214 1.33417 436.987 1.33417H440.815C441.588 1.33417 441.975 1.72084 441.975 2.49417V81.3742C441.975 82.1475 441.588 82.5342 440.815 82.5342H436.987ZM480.207 83.1142C476.031 83.1142 472.319 82.4568 469.071 81.1422C465.9 79.7502 463.425 77.8942 461.647 75.5742C459.868 73.2542 458.979 70.7022 458.979 67.9182V66.4102C458.979 65.6368 459.365 65.2502 460.139 65.2502H463.735C464.508 65.2502 464.895 65.6368 464.895 66.4102V67.6862C464.895 70.5475 466.325 73.0222 469.187 75.1102C472.048 77.1208 475.683 78.1262 480.091 78.1262C484.422 78.1262 487.94 77.0822 490.647 74.9942C493.354 72.9062 494.707 70.3155 494.707 67.2222C494.707 65.0568 494.011 63.2782 492.619 61.8862C491.227 60.4942 489.564 59.4502 487.631 58.7542C485.775 57.9808 482.952 57.0142 479.163 55.8542C474.832 54.5395 471.352 53.3022 468.723 52.1422C466.093 50.9822 463.851 49.3582 461.995 47.2702C460.216 45.1048 459.327 42.3982 459.327 39.1502C459.327 34.4328 461.183 30.6822 464.895 27.8982C468.684 25.0368 473.634 23.6062 479.743 23.6062C483.842 23.6062 487.437 24.3022 490.531 25.6942C493.701 27.0088 496.138 28.8262 497.839 31.1462C499.618 33.4662 500.507 36.0955 500.507 39.0342V39.3822C500.507 40.1555 500.12 40.5422 499.347 40.5422H495.751C494.978 40.5422 494.591 40.1555 494.591 39.3822V39.0342C494.591 36.0955 493.199 33.6595 490.415 31.7262C487.708 29.7155 484.112 28.7102 479.627 28.7102C475.296 28.7102 471.816 29.6382 469.187 31.4942C466.557 33.2728 465.243 35.7088 465.243 38.8022C465.243 41.7408 466.441 43.9448 468.839 45.4142C471.313 46.8835 475.141 48.3915 480.323 49.9382C484.808 51.2528 488.365 52.4902 490.995 53.6502C493.701 54.8102 496.021 56.4728 497.955 58.6382C499.888 60.7262 500.855 63.4715 500.855 66.8742C500.855 71.7462 498.96 75.6902 495.171 78.7062C491.459 81.6448 486.471 83.1142 480.207 83.1142Z"/>
</mask>
<path d="M49.4744 81.7222L48.8323 82.1181L48.8457 82.1399L48.8605 82.1606L49.4744 81.7222ZM7.48236 13.6302L6.76675 13.8687L6.79441 13.9517L6.84032 14.0261L7.48236 13.6302ZM7.13436 13.3982V14.1525H7.31243L7.4717 14.0729L7.13436 13.3982ZM7.25036 2.14618L7.8929 1.75102L7.87929 1.72889L7.86418 1.70774L7.25036 2.14618ZM49.1264 70.2382L49.842 69.9996L49.8145 69.9171L49.7689 69.843L49.1264 70.2382ZM49.4744 70.5862V71.3405H49.6524L49.8117 71.2609L49.4744 70.5862ZM49.7064 2.49417H50.4607C50.4607 2.22378 50.5278 2.15954 50.5298 2.15756C50.5317 2.15559 50.596 2.08849 50.8664 2.08849V1.33418V0.579849C50.3634 0.579849 49.8477 0.7061 49.463 1.09079C49.0783 1.47548 48.952 1.99123 48.952 2.49417H49.7064ZM50.8664 1.33418V2.08849H54.6944V1.33418V0.579849H50.8664V1.33418ZM54.6944 1.33418V2.08849C54.9648 2.08849 55.029 2.15559 55.031 2.15756C55.033 2.15954 55.1 2.22378 55.1 2.49417H55.8544H56.6087C56.6087 1.99123 56.4824 1.47548 56.0978 1.09079C55.7131 0.7061 55.1973 0.579849 54.6944 0.579849V1.33418ZM55.8544 2.49417H55.1V81.3742H55.8544H56.6087V2.49417H55.8544ZM55.8544 81.3742H55.1C55.1 81.6446 55.033 81.7088 55.031 81.7108C55.029 81.7128 54.9648 81.7799 54.6944 81.7799V82.5342V83.2885C55.1973 83.2885 55.7131 83.1623 56.0978 82.7776C56.4824 82.3929 56.6087 81.8771 56.6087 81.3742H55.8544ZM54.6944 82.5342V81.7799H50.8664V82.5342V83.2885H54.6944V82.5342ZM50.8664 82.5342V81.7799C50.6253 81.7799 50.3697 81.6779 50.0882 81.2837L49.4744 81.7222L48.8605 82.1606C49.3523 82.8491 50.0248 83.2885 50.8664 83.2885V82.5342ZM49.4744 81.7222L50.1164 81.3262L8.12441 13.2342L7.48236 13.6302L6.84032 14.0261L48.8323 82.1181L49.4744 81.7222ZM7.48236 13.6302L8.19798 13.3916C8.14201 13.2237 8.0248 12.9499 7.75578 12.7705C7.41566 12.5438 7.04838 12.5978 6.79703 12.7235L7.13436 13.3982L7.4717 14.0729C7.43385 14.0918 7.35431 14.1235 7.24311 14.1235C7.12334 14.1235 7.0099 14.0864 6.91895 14.0258C6.76593 13.9238 6.74538 13.8046 6.76675 13.8687L7.48236 13.6302ZM7.13436 13.3982V12.6439C6.8373 12.6439 6.5284 12.7732 6.33273 13.0667C6.17305 13.3063 6.14804 13.5702 6.14804 13.7462H6.90236H7.65668C7.65668 13.6902 7.67035 13.7801 7.58799 13.9036C7.54015 13.9754 7.46738 14.046 7.3702 14.0946C7.27614 14.1416 7.19044 14.1525 7.13436 14.1525V13.3982ZM6.90236 13.7462H6.14804V81.3742H6.90236H7.65668V13.7462H6.90236ZM6.90236 81.3742H6.14804C6.14804 81.6446 6.08096 81.7088 6.07898 81.7108C6.077 81.7128 6.01276 81.7799 5.74236 81.7799V82.5342V83.2885C6.24531 83.2885 6.76106 83.1623 7.14575 82.7776C7.53044 82.3929 7.65668 81.8771 7.65668 81.3742H6.90236ZM5.74236 82.5342V81.7799H1.91436V82.5342V83.2885H5.74236V82.5342ZM1.91436 82.5342V81.7799C1.64397 81.7799 1.57973 81.7128 1.57775 81.7108C1.57577 81.7088 1.50869 81.6446 1.50869 81.3742H0.754364H4.29153e-05C4.29153e-05 81.8771 0.126288 82.3929 0.510978 82.7776C0.895667 83.1623 1.41142 83.2885 1.91436 83.2885V82.5342ZM0.754364 81.3742H1.50869V2.49417H0.754364H4.29153e-05V81.3742H0.754364ZM0.754364 2.49417H1.50869C1.50869 2.22379 1.57577 2.15954 1.57775 2.15756C1.57973 2.15559 1.64397 2.08849 1.91436 2.08849V1.33418V0.579849C1.41142 0.579849 0.895668 0.7061 0.510979 1.09079C0.126288 1.47548 4.29153e-05 1.99123 4.29153e-05 2.49417H0.754364ZM1.91436 1.33418V2.08849H5.85836V1.33418V0.579849H1.91436V1.33418ZM5.85836 1.33418V2.08849C6.09945 2.08849 6.355 2.19044 6.63655 2.58462L7.25036 2.14618L7.86418 1.70774C7.3724 1.01924 6.69994 0.579849 5.85836 0.579849V1.33418ZM7.25036 2.14618L6.60783 2.54134L48.4838 70.6333L49.1264 70.2382L49.7689 69.843L7.8929 1.75102L7.25036 2.14618ZM49.1264 70.2382L48.4108 70.4767C48.5209 70.8073 48.8186 71.3405 49.4744 71.3405V70.5862V69.8319C49.5326 69.8319 49.598 69.8433 49.6628 69.8711C49.7267 69.8985 49.7736 69.9347 49.8048 69.9658C49.8602 70.0212 49.8603 70.0546 49.842 69.9996L49.1264 70.2382ZM49.4744 70.5862L49.8117 71.2609C50.31 71.0117 50.4607 70.526 50.4607 70.1222H49.7064H48.952C48.952 70.1592 48.9452 70.1317 48.9737 70.0748C48.9886 70.0449 49.0111 70.0117 49.0425 69.9803C49.0739 69.9489 49.1071 69.9264 49.137 69.9115L49.4744 70.5862ZM49.7064 70.1222H50.4607V2.49417H49.7064H48.952V70.1222H49.7064ZM78.3248 10.7302L78.8582 10.1968V10.1968L78.3248 10.7302ZM78.3248 2.37817L78.8582 2.91156V2.91156L78.3248 2.37817ZM82.5008 12.3542V11.5999C80.9752 11.5999 79.7831 11.1217 78.8582 10.1968L78.3248 10.7302L77.7914 11.2636C79.0319 12.504 80.6238 13.1085 82.5008 13.1085V12.3542ZM78.3248 10.7302L78.8582 10.1968C77.9334 9.27193 77.4552 8.07982 77.4552 6.55418H76.7008H75.9465C75.9465 8.43121 76.551 10.0231 77.7915 11.2636L78.3248 10.7302ZM76.7008 6.55418H77.4552C77.4552 5.02853 77.9334 3.83642 78.8582 2.91156L78.3248 2.37817L77.7915 1.84479C76.551 3.08526 75.9465 4.67715 75.9465 6.55418H76.7008ZM78.3248 2.37817L78.8582 2.91156C79.7831 1.9867 80.9752 1.5085 82.5008 1.5085V0.754173V-0.000144958C80.6238 -0.000144958 79.0319 0.604317 77.7914 1.84479L78.3248 2.37817ZM82.5008 0.754173V1.5085C84.0265 1.5085 85.2186 1.9867 86.1434 2.91156L86.6768 2.37817L87.2102 1.84479C85.9697 0.604317 84.3779 -0.000144958 82.5008 -0.000144958V0.754173ZM86.6768 2.37817L86.1434 2.91156C87.0683 3.83642 87.5465 5.02853 87.5465 6.55418H88.3008H89.0552C89.0552 4.67715 88.4507 3.08526 87.2102 1.84479L86.6768 2.37817ZM88.3008 6.55418H87.5465C87.5465 8.07982 87.0683 9.27193 86.1434 10.1968L86.6768 10.7302L87.2102 11.2636C88.4507 10.0231 89.0552 8.43121 89.0552 6.55418H88.3008ZM86.6768 10.7302L86.1434 10.1968C85.2186 11.1217 84.0265 11.5999 82.5008 11.5999V12.3542V13.1085C84.3779 13.1085 85.9697 12.504 87.2102 11.2636L86.6768 10.7302ZM80.2968 82.4182V81.6639C80.0264 81.6639 79.9622 81.5968 79.9602 81.5948C79.9582 81.5928 79.8912 81.5286 79.8912 81.2582H79.1368H78.3825C78.3825 81.7611 78.5088 82.2769 78.8934 82.6616C79.2781 83.0463 79.7939 83.1725 80.2968 83.1725V82.4182ZM79.1368 81.2582H79.8912V25.1142H79.1368H78.3825V81.2582H79.1368ZM79.1368 25.1142H79.8912C79.8912 24.8438 79.9582 24.7795 79.9602 24.7776C79.9622 24.7756 80.0264 24.7085 80.2968 24.7085V23.9542V23.1999C79.7939 23.1999 79.2781 23.3261 78.8934 23.7108C78.5088 24.0955 78.3825 24.6112 78.3825 25.1142H79.1368ZM80.2968 23.9542V24.7085H84.1248V23.9542V23.1999H80.2968V23.9542ZM84.1248 23.9542V24.7085C84.3952 24.7085 84.4595 24.7756 84.4614 24.7776C84.4634 24.7795 84.5305 24.8438 84.5305 25.1142H85.2848H86.0392C86.0392 24.6112 85.9129 24.0955 85.5282 23.7108C85.1435 23.3261 84.6278 23.1999 84.1248 23.1999V23.9542ZM85.2848 25.1142H84.5305V81.2582H85.2848H86.0392V25.1142H85.2848ZM85.2848 81.2582H84.5305C84.5305 81.5286 84.4634 81.5928 84.4614 81.5948C84.4595 81.5968 84.3952 81.6639 84.1248 81.6639V82.4182V83.1725C84.6278 83.1725 85.1435 83.0463 85.5282 82.6616C85.9129 82.2769 86.0392 81.7611 86.0392 81.2582H85.2848ZM84.1248 82.4182V81.6639H80.2968V82.4182V83.1725H84.1248V82.4182ZM100.929 82.0702L101.603 81.7328V81.7328L100.929 82.0702ZM101.161 81.1422L101.694 81.6756L101.74 81.6297L101.777 81.5767L101.161 81.1422ZM120.533 53.6502L121.149 54.0847L121.155 54.0767L121.16 54.0686L120.533 53.6502ZM120.533 52.9542L121.16 52.5358L121.155 52.5276L121.149 52.5197L120.533 52.9542ZM101.161 25.4622L101.777 25.0277L101.74 24.9747L101.694 24.9288L101.161 25.4622ZM101.161 24.3022L100.627 23.7688L100.627 23.7688L101.161 24.3022ZM107.309 24.7662L106.681 25.1846L106.685 25.1913L106.69 25.1979L107.309 24.7662ZM123.665 48.1982L123.046 48.6299L123.084 48.6845L123.131 48.7316L123.665 48.1982ZM124.361 48.1982L124.894 48.7316L124.942 48.6836L124.98 48.6279L124.361 48.1982ZM140.601 24.7662L141.221 25.1959L141.228 25.1846L140.601 24.7662ZM147.329 24.5342L146.654 24.8715V24.8715L147.329 24.5342ZM147.097 25.4622L146.563 24.9288L146.517 24.9747L146.48 25.0277L147.097 25.4622ZM127.725 52.9542L127.108 52.5197L127.044 52.6104L127.009 52.7156L127.725 52.9542ZM127.725 53.6502L127.009 53.8887L127.044 53.994L127.108 54.0847L127.725 53.6502ZM147.097 81.1422L146.48 81.5767L146.517 81.6297L146.563 81.6756L147.097 81.1422ZM140.833 81.8382L141.46 81.4198L141.456 81.4134L141.452 81.4071L140.833 81.8382ZM124.593 58.5222L123.918 58.8595L123.942 58.9084L123.974 58.9533L124.593 58.5222ZM123.897 58.5222L124.514 58.9554L124.546 58.9096L124.571 58.8595L123.897 58.5222ZM107.541 81.8382L106.923 81.405L106.918 81.4123L106.913 81.4198L107.541 81.8382ZM101.857 82.5342V81.7799C101.703 81.7799 101.634 81.7537 101.614 81.7435C101.605 81.7391 101.605 81.7374 101.607 81.7398C101.609 81.7422 101.608 81.7416 101.603 81.7328L100.929 82.0702L100.254 82.4075C100.58 83.0605 101.221 83.2885 101.857 83.2885V82.5342ZM100.929 82.0702L101.603 81.7328C101.599 81.7237 101.602 81.7283 101.605 81.7446C101.607 81.7618 101.605 81.7782 101.602 81.7891C101.598 81.8076 101.601 81.7681 101.694 81.6756L101.161 81.1422L100.627 80.6088C100.41 80.8256 100.221 81.0954 100.139 81.4232C100.053 81.7679 100.103 82.1065 100.254 82.4075L100.929 82.0702ZM101.161 81.1422L101.777 81.5767L121.149 54.0847L120.533 53.6502L119.916 53.2157L100.544 80.7077L101.161 81.1422ZM120.533 53.6502L121.16 54.0686C121.303 53.8541 121.403 53.5949 121.403 53.3022C121.403 53.0094 121.303 52.7503 121.16 52.5358L120.533 52.9542L119.905 53.3726C119.911 53.3825 119.908 53.3805 119.904 53.3667C119.899 53.352 119.894 53.3296 119.894 53.3022C119.894 53.2748 119.899 53.2524 119.904 53.2376C119.908 53.2239 119.911 53.2219 119.905 53.2318L120.533 53.6502ZM120.533 52.9542L121.149 52.5197L101.777 25.0277L101.161 25.4622L100.544 25.8967L119.916 53.3887L120.533 52.9542ZM101.161 25.4622L101.694 24.9288C101.709 24.9436 101.708 24.9518 101.702 24.9336C101.695 24.9118 101.683 24.8602 101.683 24.7662H100.929H100.174C100.174 25.1918 100.281 25.6495 100.627 25.9956L101.161 25.4622ZM100.929 24.7662H101.683C101.683 24.7911 101.68 24.8138 101.675 24.8331C101.67 24.8521 101.664 24.8651 101.661 24.8715C101.655 24.883 101.659 24.87 101.694 24.8356L101.161 24.3022L100.627 23.7688C100.39 24.0057 100.174 24.3409 100.174 24.7662H100.929ZM101.161 24.3022L101.694 24.8356C101.679 24.8504 101.671 24.8498 101.689 24.8438C101.711 24.8365 101.762 24.8245 101.857 24.8245V24.0702V23.3159C101.431 23.3159 100.973 23.4228 100.627 23.7688L101.161 24.3022ZM101.857 24.0702V24.8245H105.917V24.0702V23.3159H101.857V24.0702ZM105.917 24.0702V24.8245C106.315 24.8245 106.529 24.9561 106.681 25.1846L107.309 24.7662L107.936 24.3478C107.47 23.6483 106.755 23.3159 105.917 23.3159V24.0702ZM107.309 24.7662L106.69 25.1979L123.046 48.6299L123.665 48.1982L124.283 47.7664L107.927 24.3344L107.309 24.7662ZM123.665 48.1982L123.131 48.7316C123.4 49.0003 123.742 49.0685 124.013 49.0685V48.3142V47.5599C123.974 47.5599 124.084 47.5508 124.198 47.6648L123.665 48.1982ZM124.013 48.3142V49.0685C124.283 49.0685 124.625 49.0003 124.894 48.7316L124.361 48.1982L123.827 47.6648C123.941 47.5508 124.051 47.5599 124.013 47.5599V48.3142ZM124.361 48.1982L124.98 48.6279L141.22 25.1959L140.601 24.7662L139.981 24.3365L123.741 47.7685L124.361 48.1982ZM140.601 24.7662L141.228 25.1846C141.38 24.9561 141.594 24.8245 141.993 24.8245V24.0702V23.3159C141.154 23.3159 140.439 23.6483 139.973 24.3478L140.601 24.7662ZM141.993 24.0702V24.8245H146.401V24.0702V23.3159H141.993V24.0702ZM146.401 24.0702V24.8245C146.554 24.8245 146.623 24.8507 146.643 24.8609C146.652 24.8652 146.652 24.8669 146.65 24.8646C146.648 24.8622 146.649 24.8628 146.654 24.8715L147.329 24.5342L148.003 24.1968C147.677 23.5439 147.036 23.3159 146.401 23.3159V24.0702ZM147.329 24.5342L146.654 24.8715C146.658 24.8807 146.655 24.876 146.653 24.8597C146.65 24.8425 146.652 24.8261 146.655 24.8152C146.659 24.7968 146.656 24.8363 146.563 24.9288L147.097 25.4622L147.63 25.9956C147.847 25.7788 148.036 25.5089 148.118 25.1811C148.204 24.8365 148.154 24.4979 148.003 24.1968L147.329 24.5342ZM147.097 25.4622L146.48 25.0277L127.108 52.5197L127.725 52.9542L128.341 53.3887L147.713 25.8967L147.097 25.4622ZM127.725 52.9542L127.009 52.7156C126.88 53.1025 126.88 53.5019 127.009 53.8887L127.725 53.6502L128.44 53.4116C128.414 53.3345 128.414 53.2699 128.44 53.1927L127.725 52.9542ZM127.725 53.6502L127.108 54.0847L146.48 81.5767L147.097 81.1422L147.713 80.7077L128.341 53.2157L127.725 53.6502ZM147.097 81.1422L146.563 81.6756C146.548 81.6608 146.549 81.6526 146.555 81.6707C146.562 81.6925 146.574 81.7441 146.574 81.8382H147.329H148.083C148.083 81.4126 147.976 80.9548 147.63 80.6088L147.097 81.1422ZM147.329 81.8382H146.574C146.574 81.8133 146.577 81.7906 146.582 81.7712C146.587 81.7522 146.593 81.7393 146.596 81.7328C146.602 81.7214 146.598 81.7343 146.563 81.7688L147.097 82.3022L147.63 82.8356C147.867 82.5987 148.083 82.2635 148.083 81.8382H147.329ZM147.097 82.3022L146.563 81.7688C146.578 81.754 146.586 81.7545 146.568 81.7606C146.546 81.7678 146.495 81.7799 146.401 81.7799V82.5342V83.2885C146.826 83.2885 147.284 83.1816 147.63 82.8356L147.097 82.3022ZM146.401 82.5342V81.7799H142.225V82.5342V83.2885H146.401V82.5342ZM142.225 82.5342V81.7799C141.826 81.7799 141.612 81.6483 141.46 81.4198L140.833 81.8382L140.205 82.2566C140.671 82.9561 141.386 83.2885 142.225 83.2885V82.5342ZM140.833 81.8382L141.452 81.4071L125.212 58.091L124.593 58.5222L123.974 58.9533L140.214 82.2693L140.833 81.8382ZM124.593 58.5222L125.267 58.1848C125.184 58.018 125.057 57.8476 124.866 57.7205C124.671 57.5904 124.454 57.5359 124.245 57.5359V58.2902V59.0445C124.19 59.0445 124.108 59.0287 124.029 58.9758C123.955 58.9261 123.924 58.8717 123.918 58.8595L124.593 58.5222ZM124.245 58.2902V57.5359C124.035 57.5359 123.818 57.5904 123.623 57.7205C123.433 57.8476 123.305 58.018 123.222 58.1848L123.897 58.5222L124.571 58.8595C124.565 58.8717 124.535 58.9261 124.46 58.9758C124.381 59.0287 124.299 59.0445 124.245 59.0445V58.2902ZM123.897 58.5222L123.279 58.089L106.923 81.405L107.541 81.8382L108.158 82.2714L124.514 58.9554L123.897 58.5222ZM107.541 81.8382L106.913 81.4198C106.761 81.6483 106.547 81.7799 106.149 81.7799V82.5342V83.2885C106.987 83.2885 107.702 82.9561 108.168 82.2566L107.541 81.8382ZM106.149 82.5342V81.7799H101.857V82.5342V83.2885H106.149V82.5342ZM161.587 10.7302L162.12 10.1968V10.1968L161.587 10.7302ZM161.587 2.37817L162.12 2.91156V2.91156L161.587 2.37817ZM165.763 12.3542V11.5999C164.237 11.5999 163.045 11.1217 162.12 10.1968L161.587 10.7302L161.053 11.2636C162.294 12.504 163.886 13.1085 165.763 13.1085V12.3542ZM161.587 10.7302L162.12 10.1968C161.195 9.27193 160.717 8.07982 160.717 6.55418H159.963H159.208C159.208 8.43121 159.813 10.0231 161.053 11.2636L161.587 10.7302ZM159.963 6.55418H160.717C160.717 5.02853 161.195 3.83642 162.12 2.91156L161.587 2.37817L161.053 1.84479C159.813 3.08526 159.208 4.67715 159.208 6.55418H159.963ZM161.587 2.37817L162.12 2.91156C163.045 1.9867 164.237 1.5085 165.763 1.5085V0.754173V-0.000144958C163.886 -0.000144958 162.294 0.604317 161.053 1.84479L161.587 2.37817ZM165.763 0.754173V1.5085C167.288 1.5085 168.48 1.9867 169.405 2.91156L169.939 2.37817L170.472 1.84479C169.231 0.604317 167.64 -0.000144958 165.763 -0.000144958V0.754173ZM169.939 2.37817L169.405 2.91156C170.33 3.83642 170.808 5.02853 170.808 6.55418H171.563H172.317C172.317 4.67715 171.712 3.08526 170.472 1.84479L169.939 2.37817ZM171.563 6.55418H170.808C170.808 8.07982 170.33 9.27193 169.405 10.1968L169.939 10.7302L170.472 11.2636C171.712 10.0231 172.317 8.43121 172.317 6.55418H171.563ZM169.939 10.7302L169.405 10.1968C168.48 11.1217 167.288 11.5999 165.763 11.5999V12.3542V13.1085C167.64 13.1085 169.231 12.504 170.472 11.2636L169.939 10.7302ZM163.559 82.4182V81.6639C163.288 81.6639 163.224 81.5968 163.222 81.5948C163.22 81.5928 163.153 81.5286 163.153 81.2582H162.399H161.644C161.644 81.7611 161.77 82.2769 162.155 82.6616C162.54 83.0463 163.056 83.1725 163.559 83.1725V82.4182ZM162.399 81.2582H163.153V25.1142H162.399H161.644V81.2582H162.399ZM162.399 25.1142H163.153C163.153 24.8438 163.22 24.7795 163.222 24.7776C163.224 24.7756 163.288 24.7085 163.559 24.7085V23.9542V23.1999C163.056 23.1999 162.54 23.3261 162.155 23.7108C161.77 24.0955 161.644 24.6112 161.644 25.1142H162.399ZM163.559 23.9542V24.7085H167.387V23.9542V23.1999H163.559V23.9542ZM167.387 23.9542V24.7085C167.657 24.7085 167.721 24.7756 167.723 24.7776C167.725 24.7795 167.792 24.8438 167.792 25.1142H168.547H169.301C169.301 24.6112 169.175 24.0955 168.79 23.7108C168.405 23.3261 167.889 23.1999 167.387 23.1999V23.9542ZM168.547 25.1142H167.792V81.2582H168.547H169.301V25.1142H168.547ZM168.547 81.2582H167.792C167.792 81.5286 167.725 81.5928 167.723 81.5948C167.721 81.5968 167.657 81.6639 167.387 81.6639V82.4182V83.1725C167.889 83.1725 168.405 83.0463 168.79 82.6616C169.175 82.2769 169.301 81.7611 169.301 81.2582H168.547ZM167.387 82.4182V81.6639H163.559V82.4182V83.1725H167.387V82.4182ZM221.774 75.5742L222.179 76.2106L222.184 76.2075L221.774 75.5742ZM227.922 68.6142L227.263 68.2478L227.255 68.2622L227.248 68.2768L227.922 68.6142ZM232.446 69.5422L232.813 68.8828L232.798 68.8748L232.784 68.8675L232.446 69.5422ZM233.026 71.0502L232.352 70.7128L232.345 70.7269L232.338 70.7412L233.026 71.0502ZM224.906 80.0982L224.516 79.4525L224.51 79.4562L224.906 80.0982ZM198.226 79.5182L198.656 78.8984V78.8984L198.226 79.5182ZM190.454 68.7302L191.176 68.51L191.173 68.5003L190.454 68.7302ZM189.178 62.2342L188.427 62.3068V62.3068L189.178 62.2342ZM188.946 44.6022L188.194 44.542L188.193 44.557L188.193 44.572L188.946 44.6022ZM189.758 39.2662L189.027 39.0805L189.024 39.0915L189.758 39.2662ZM197.298 27.5502L196.842 26.9496L196.836 26.9541L197.298 27.5502ZM226.646 28.1302L226.149 28.6972L226.155 28.7029L226.646 28.1302ZM233.722 41.7022L234.467 41.5845L234.467 41.583L233.722 41.7022ZM234.186 46.9222L233.432 46.9512L233.433 46.9523L234.186 46.9222ZM195.442 65.7142L196.178 65.5489L196.176 65.5395L195.442 65.7142ZM201.126 74.7622L200.669 75.3618L200.677 75.3685L200.686 75.3749L201.126 74.7622ZM195.674 40.6582L196.404 40.8501L196.408 40.8327L196.412 40.8152L195.674 40.6582ZM194.862 49.7062L194.108 49.6806L194.108 49.6934V49.7062H194.862ZM227.574 41.0062L228.314 40.8582L228.312 40.8479L228.31 40.8377L227.574 41.0062ZM222.006 32.0742L221.531 32.6602L221.541 32.6679L222.006 32.0742ZM201.01 31.9582L201.473 32.5537L201.483 32.5456L201.01 31.9582ZM212.494 78.0102V78.7645C216.243 78.7645 219.484 77.9259 222.179 76.2106L221.774 75.5742L221.369 74.9378C218.961 76.4705 216.015 77.2559 212.494 77.2559V78.0102ZM221.774 75.5742L222.184 76.2075C224.932 74.4293 227.07 72.0046 228.597 68.9515L227.922 68.6142L227.248 68.2768C225.835 71.1011 223.875 73.3164 221.364 74.9409L221.774 75.5742ZM227.922 68.6142L228.582 68.9805C228.729 68.7155 228.837 68.6601 228.86 68.6512C228.861 68.6509 228.916 68.6204 229.093 68.7089L229.43 68.0342L229.768 67.3595C229.326 67.1387 228.82 67.0501 228.318 67.2431C227.839 67.4276 227.502 67.8169 227.263 68.2478L227.922 68.6142ZM229.43 68.0342L229.093 68.7089L232.109 70.2169L232.446 69.5422L232.784 68.8675L229.768 67.3595L229.43 68.0342ZM232.446 69.5422L232.08 70.2016C232.345 70.3488 232.4 70.4568 232.409 70.48C232.409 70.4807 232.44 70.5358 232.352 70.7128L233.026 71.0502L233.701 71.3875C233.922 70.9459 234.01 70.4403 233.817 69.9384C233.633 69.4588 233.244 69.1222 232.813 68.8828L232.446 69.5422ZM233.026 71.0502L232.338 70.7412C230.702 74.3842 228.103 77.2855 224.516 79.4525L224.906 80.0982L225.296 80.7438C229.133 78.4255 231.947 75.2948 233.714 71.3591L233.026 71.0502ZM224.906 80.0982L224.51 79.4562C221.012 81.6144 216.862 82.7079 212.03 82.7079V83.4622V84.2165C217.097 84.2165 221.531 83.0673 225.302 80.7401L224.906 80.0982ZM212.03 83.4622V82.7079C206.743 82.7079 202.299 81.4257 198.656 78.8984L198.226 79.5182L197.796 80.1379C201.733 82.8693 206.491 84.2165 212.03 84.2165V83.4622ZM198.226 79.5182L198.656 78.8984C195.011 76.3693 192.52 72.9165 191.176 68.5101L190.454 68.7302L189.733 68.9503C191.172 73.6691 193.863 77.4084 197.796 80.1379L198.226 79.5182ZM190.454 68.7302L191.173 68.5003C190.573 66.6265 190.157 64.515 189.929 62.1615L189.178 62.2342L188.427 62.3068C188.664 64.748 189.098 66.9672 189.736 68.9601L190.454 68.7302ZM189.178 62.2342L189.929 62.1615C189.7 59.7972 189.585 56.8074 189.585 53.1862H188.83H188.076C188.076 56.8342 188.192 59.8765 188.427 62.3068L189.178 62.2342ZM188.83 53.1862H189.585C189.585 49.3993 189.623 46.5502 189.7 44.6323L188.946 44.6022L188.193 44.572C188.115 46.5209 188.076 49.3944 188.076 53.1862H188.83ZM188.946 44.6022L189.698 44.6623C189.85 42.7616 190.116 41.0218 190.492 39.4409L189.758 39.2662L189.024 39.0915C188.628 40.7586 188.352 42.5761 188.194 44.542L188.946 44.6022ZM189.758 39.2662L190.489 39.4519C191.687 34.7343 194.111 30.9767 197.76 28.1463L197.298 27.5502L196.836 26.9541C192.907 30.001 190.304 34.054 189.027 39.0805L189.758 39.2662ZM197.298 27.5502L197.755 28.1507C201.471 25.3261 206.022 23.8965 211.45 23.8965V23.1422V22.3879C205.743 22.3879 200.858 23.8969 196.842 26.9496L197.298 27.5502ZM211.45 23.1422V23.8965C217.657 23.8965 222.53 25.5213 226.149 28.6971L226.646 28.1302L227.144 27.5632C223.184 24.0884 217.926 22.3879 211.45 22.3879V23.1422ZM226.646 28.1302L226.155 28.7029C229.786 31.8146 232.072 36.165 232.977 41.8214L233.722 41.7022L234.467 41.583C233.516 35.6393 231.085 30.9417 227.137 27.5575L226.646 28.1302ZM233.722 41.7022L232.977 41.8198C233.203 43.2516 233.356 44.9606 233.432 46.9512L234.186 46.9222L234.94 46.8932C234.862 44.8624 234.705 43.0914 234.467 41.5845L233.722 41.7022ZM234.186 46.9222L233.433 46.9523C233.509 48.8719 233.548 51.297 233.548 54.2302H234.302H235.057C235.057 51.286 235.018 48.8391 234.94 46.892L234.186 46.9222ZM234.302 54.2302H233.548C233.548 54.5006 233.481 54.5648 233.479 54.5668C233.477 54.5688 233.413 54.6359 233.142 54.6359V55.3902V56.1445C233.645 56.1445 234.161 56.0183 234.546 55.6336C234.93 55.2489 235.057 54.7331 235.057 54.2302H234.302ZM233.142 55.3902V54.6359H195.326V55.3902V56.1445H233.142V55.3902ZM195.326 55.3902V54.6359C195.055 54.6359 194.714 54.7041 194.445 54.9728C194.176 55.2415 194.108 55.5832 194.108 55.8542H194.862H195.617C195.617 55.8158 195.626 55.9255 195.512 56.0396C195.398 56.1536 195.288 56.1445 195.326 56.1445V55.3902ZM194.862 55.8542H194.108C194.108 60.789 194.298 64.1646 194.708 65.8889L195.442 65.7142L196.176 65.5395C195.813 64.0158 195.617 60.8181 195.617 55.8542H194.862ZM195.442 65.7142L194.706 65.8794C195.594 69.8323 197.581 73.0058 200.669 75.3618L201.126 74.7622L201.584 74.1625C198.794 72.0332 196.992 69.1748 196.178 65.549L195.442 65.7142ZM201.126 74.7622L200.686 75.3749C203.857 77.6516 207.81 78.7645 212.494 78.7645V78.0102V77.2559C208.053 77.2559 204.427 76.2034 201.566 74.1494L201.126 74.7622ZM195.674 40.6582L194.945 40.4662C194.533 42.0311 194.263 45.1326 194.108 49.6806L194.862 49.7062L195.616 49.7317C195.771 45.1544 196.042 42.2239 196.404 40.8501L195.674 40.6582ZM194.862 49.7062H194.108C194.108 49.9771 194.176 50.3189 194.445 50.5876C194.714 50.8563 195.055 50.9245 195.326 50.9245V50.1702V49.4159C195.288 49.4159 195.398 49.4068 195.512 49.5208C195.626 49.6348 195.617 49.7446 195.617 49.7062H194.862ZM195.326 50.1702V50.9245H227.69V50.1702V49.4159H195.326V50.1702ZM227.69 50.1702V50.9245C227.961 50.9245 228.303 50.8563 228.572 50.5876C228.84 50.3189 228.909 49.9771 228.909 49.7062H228.154H227.4C227.4 49.7446 227.391 49.6348 227.505 49.5208C227.619 49.4068 227.729 49.4159 227.69 49.4159V50.1702ZM228.154 49.7062H228.909C228.909 45.8276 228.716 42.867 228.314 40.8582L227.574 41.0062L226.835 41.1541C227.206 43.0121 227.4 45.8515 227.4 49.7062H228.154ZM227.574 41.0062L228.31 40.8377C227.422 36.9659 225.476 33.8351 222.472 31.4805L222.006 32.0742L221.541 32.6679C224.259 34.7986 226.025 37.6225 226.839 41.1747L227.574 41.0062ZM222.006 32.0742L222.481 31.4883C219.468 29.0449 215.775 27.8399 211.45 27.8399V28.5942V29.3485C215.478 29.3485 218.822 30.4635 221.531 32.6601L222.006 32.0742ZM211.45 28.5942V27.8399C207.132 27.8399 203.477 29.0025 200.537 31.3707L201.01 31.9582L201.483 32.5456C204.112 30.4285 207.416 29.3485 211.45 29.3485V28.5942ZM201.01 31.9582L200.547 31.3628C197.615 33.6435 195.745 36.7027 194.936 40.5012L195.674 40.6582L196.412 40.8152C197.151 37.3443 198.838 34.6036 201.473 32.5536L201.01 31.9582ZM322.865 7.25018L322.357 7.8079L322.362 7.81285L322.865 7.25018ZM322.865 76.7342L323.367 77.2969L323.373 77.2919L322.865 76.7342ZM318.341 72.5582L318.867 73.0983L318.867 73.0981L318.341 72.5582ZM323.213 60.0302L323.967 60.0413V60.0302H323.213ZM318.457 11.4262L317.923 11.9596L317.93 11.9662L317.937 11.9727L318.457 11.4262ZM278.321 82.5342V81.7799C278.05 81.7799 277.986 81.7128 277.984 81.7108C277.982 81.7088 277.915 81.6446 277.915 81.3742H277.161H276.406C276.406 81.8771 276.533 82.3929 276.917 82.7776C277.302 83.1623 277.818 83.2885 278.321 83.2885V82.5342ZM277.161 81.3742H277.915V2.49417H277.161H276.406V81.3742H277.161ZM277.161 2.49417H277.915C277.915 2.22379 277.982 2.15954 277.984 2.15756C277.986 2.15559 278.05 2.08849 278.321 2.08849V1.33418V0.579849C277.818 0.579849 277.302 0.7061 276.917 1.09079C276.533 1.47548 276.406 1.99123 276.406 2.49417H277.161ZM278.321 1.33418V2.08849H305.233V1.33418V0.579849H278.321V1.33418ZM305.233 1.33418V2.08849C312.521 2.08849 318.199 4.02155 322.357 7.80788L322.865 7.25018L323.373 6.69247C318.869 2.5908 312.792 0.579849 305.233 0.579849V1.33418ZM322.865 7.25018L322.362 7.81285C326.507 11.5131 328.606 16.5914 328.606 23.1422H329.361H330.115C330.115 16.2369 327.884 10.7206 323.367 6.6875L322.865 7.25018ZM329.361 23.1422H328.606V60.7262H329.361H330.115V23.1422H329.361ZM329.361 60.7262H328.606C328.606 67.2766 326.506 72.3973 322.357 76.1765L322.865 76.7342L323.373 77.2919C327.884 73.1831 330.115 67.6317 330.115 60.7262H329.361ZM322.865 76.7342L322.362 76.1715C318.205 79.8834 312.525 81.7799 305.233 81.7799V82.5342V83.2885C312.789 83.2885 318.863 81.3183 323.367 77.2969L322.865 76.7342ZM305.233 82.5342V81.7799H278.321V82.5342V83.2885H305.233V82.5342ZM283.309 76.6182H282.554C282.554 76.8891 282.623 77.2309 282.891 77.4996C283.16 77.7683 283.502 77.8365 283.773 77.8365V77.0822V76.3279C283.734 76.3279 283.844 76.3188 283.958 76.4328C284.072 76.5468 284.063 76.6566 284.063 76.6182H283.309ZM283.773 77.0822V77.8365H305.581V77.0822V76.3279H283.773V77.0822ZM305.581 77.0822V77.8365C311.138 77.8365 315.6 76.2843 318.867 73.0983L318.341 72.5582L317.814 72.0181C314.895 74.8641 310.85 76.3279 305.581 76.3279V77.0822ZM318.341 72.5582L318.867 73.0981C322.207 69.8398 323.887 65.4593 323.967 60.0413L323.213 60.0302L322.458 60.0191C322.383 65.1184 320.815 69.0899 317.814 72.0182L318.341 72.5582ZM323.213 60.0302H323.967V23.8382H323.213H322.458V60.0302H323.213ZM323.213 23.8382H323.967C323.967 18.4178 322.327 14.0663 318.977 10.8796L318.457 11.4262L317.937 11.9727C320.928 14.8181 322.458 18.7412 322.458 23.8382H323.213ZM318.457 11.4262L318.99 10.8928C315.721 7.624 311.217 6.03185 305.581 6.03185V6.78617V7.5405C310.925 7.5405 315.005 9.04169 317.923 11.9596L318.457 11.4262ZM305.581 6.78617V6.03185H283.773V6.78617V7.5405H305.581V6.78617ZM283.773 6.78617V6.03185C283.502 6.03185 283.16 6.1001 282.891 6.36879C282.623 6.63747 282.554 6.97923 282.554 7.25018H283.309H284.063C284.063 7.21178 284.072 7.32153 283.958 7.43556C283.844 7.54958 283.734 7.5405 283.773 7.5405V6.78617ZM283.309 7.25018H282.554V76.6182H283.309H284.063V7.25018H283.309ZM354.32 79.1702L353.871 79.7765V79.7765L354.32 79.1702ZM346.432 67.6862L345.704 67.8862L345.707 67.8965L346.432 67.6862ZM346.432 38.8022L345.707 38.5919L345.706 38.5974L346.432 38.8022ZM354.204 27.4342L354.65 28.0421L354.652 28.0405L354.204 27.4342ZM382.276 27.4342L381.827 28.0406L381.833 28.0447L382.276 27.4342ZM390.164 38.8022L390.894 38.6117L390.89 38.5997L390.164 38.8022ZM391.092 44.8342L390.339 44.8861L390.339 44.8879L391.092 44.8342ZM391.092 61.7702L391.844 61.8239V61.8239L391.092 61.7702ZM390.164 67.6862L390.891 67.8857L390.894 67.8766L390.164 67.6862ZM382.276 79.1702L381.833 78.5596L381.827 78.5638L382.276 79.1702ZM378.68 74.6462L379.145 75.2399L379.147 75.2382L378.68 74.6462ZM384.364 65.5982L383.633 65.4089L383.631 65.4192L383.628 65.4297L384.364 65.5982ZM384.48 41.0062L383.744 41.1714L383.745 41.1758L384.48 41.0062ZM378.796 31.9582L378.33 32.5519L378.338 32.5578L378.796 31.9582ZM352.116 41.0062L352.851 41.1723L352.852 41.1714L352.116 41.0062ZM352.116 65.5982L352.852 65.433L352.851 65.432L352.116 65.5982ZM357.684 74.6462L358.149 74.0525V74.0525L357.684 74.6462ZM368.24 83.4622V82.7079C362.967 82.7079 358.489 81.3172 354.768 78.5638L354.32 79.1702L353.871 79.7765C357.884 82.7459 362.686 84.2165 368.24 84.2165V83.4622ZM354.32 79.1702L354.768 78.5638C351.04 75.8047 348.504 72.1184 347.156 67.4759L346.432 67.6862L345.707 67.8965C347.143 72.8433 349.866 76.813 353.871 79.7765L354.32 79.1702ZM346.432 67.6862L347.159 67.4862C346.337 64.4956 345.91 59.7471 345.91 53.1862H345.156H344.401C344.401 59.7719 344.825 64.6901 345.704 67.8862L346.432 67.6862ZM345.156 53.1862H345.91C345.91 46.6236 346.337 41.9169 347.158 39.0069L346.432 38.8022L345.706 38.5974C344.825 41.7194 344.401 46.6021 344.401 53.1862H345.156ZM346.432 38.8022L347.156 39.0125C348.505 34.3668 351.003 30.7214 354.65 28.0421L354.204 27.4342L353.757 26.8263C349.825 29.7149 347.142 33.6482 345.707 38.5919L346.432 38.8022ZM354.204 27.4342L354.652 28.0405C358.369 25.2899 362.923 23.8965 368.356 23.8965V23.1422V22.3879C362.653 22.3879 357.771 23.8558 353.755 26.8278L354.204 27.4342ZM368.356 23.1422V23.8965C373.629 23.8965 378.106 25.2872 381.827 28.0405L382.276 27.4342L382.724 26.8278C378.712 23.8585 373.909 22.3879 368.356 22.3879V23.1422ZM382.276 27.4342L381.833 28.0447C385.638 30.8055 388.168 34.4506 389.437 39.0047L390.164 38.8022L390.89 38.5997C389.53 33.7191 386.801 29.7856 382.719 26.8236L382.276 27.4342ZM390.164 38.8022L389.434 38.9926C389.884 40.7172 390.187 42.6803 390.339 44.8861L391.092 44.8342L391.844 44.7823C391.687 42.5028 391.372 40.4445 390.894 38.6118L390.164 38.8022ZM391.092 44.8342L390.339 44.8879C390.492 47.0283 390.569 49.7926 390.569 53.1862H391.324H392.078C392.078 49.7744 392 46.9707 391.844 44.7804L391.092 44.8342ZM391.324 53.1862H390.569C390.569 56.7353 390.492 59.5766 390.339 61.7164L391.092 61.7702L391.844 61.8239C392.001 59.6331 392.078 56.7517 392.078 53.1862H391.324ZM391.092 61.7702L390.339 61.7164C390.187 63.8436 389.884 65.769 389.434 67.4958L390.164 67.6862L390.894 67.8766C391.371 66.046 391.687 64.0274 391.844 61.8239L391.092 61.7702ZM390.164 67.6862L389.436 67.4867C388.166 72.1196 385.635 75.8012 381.833 78.5596L382.276 79.1702L382.719 79.7807C386.804 76.8165 389.532 72.8421 390.891 67.8857L390.164 67.6862ZM382.276 79.1702L381.827 78.5638C378.108 81.3158 373.593 82.7079 368.24 82.7079V83.4622V84.2165C373.868 84.2165 378.71 82.7472 382.724 79.7765L382.276 79.1702ZM368.24 78.0102V78.7645C372.484 78.7645 376.134 77.5998 379.145 75.2399L378.68 74.6462L378.214 74.0525C375.503 76.1779 372.192 77.2559 368.24 77.2559V78.0102ZM378.68 74.6462L379.147 75.2382C382.223 72.8097 384.211 69.6431 385.099 65.7667L384.364 65.5982L383.628 65.4297C382.815 68.9772 381.013 71.8426 378.212 74.0541L378.68 74.6462ZM384.364 65.5982L385.094 65.7875C385.663 63.5922 385.93 59.3989 385.93 53.3022H385.176H384.421C384.421 59.4241 384.147 63.4282 383.633 65.4089L384.364 65.5982ZM385.176 53.3022H385.93C385.93 47.1303 385.701 42.9449 385.215 40.8366L384.48 41.0062L383.745 41.1758C384.186 43.0888 384.421 47.1007 384.421 53.3022H385.176ZM384.48 41.0062L385.216 40.841C384.328 36.8881 382.34 33.7145 379.253 31.3585L378.796 31.9582L378.338 32.5578C381.128 34.6872 382.93 37.5456 383.744 41.1714L384.48 41.0062ZM378.796 31.9582L379.261 31.3645C376.248 29.0026 372.558 27.8399 368.24 27.8399V28.5942V29.3485C372.273 29.3485 375.621 30.4284 378.33 32.5519L378.796 31.9582ZM368.24 28.5942V27.8399C363.921 27.8399 360.232 29.0026 357.218 31.3645L357.684 31.9582L358.149 32.5519C360.858 30.4284 364.206 29.3485 368.24 29.3485V28.5942ZM357.684 31.9582L357.218 31.3645C354.21 33.7221 352.266 36.8943 351.38 40.841L352.116 41.0062L352.852 41.1714C353.667 37.5394 355.434 34.6796 358.149 32.5519L357.684 31.9582ZM352.116 41.0062L351.38 40.84C350.818 43.3274 350.549 47.5011 350.549 53.3022H351.304H352.058C352.058 47.5032 352.33 43.4796 352.851 41.1723L352.116 41.0062ZM351.304 53.3022H350.549C350.549 59.1032 350.818 63.277 351.38 65.7643L352.116 65.5982L352.851 65.432C352.33 63.1247 352.058 59.1011 352.058 53.3022H351.304ZM352.116 65.5982L351.38 65.7634C352.266 69.71 354.21 72.8822 357.218 75.2399L357.684 74.6462L358.149 74.0525C355.434 71.9248 353.667 69.065 352.852 65.433L352.116 65.5982ZM357.684 74.6462L357.218 75.2399C360.232 77.6017 363.921 78.7645 368.24 78.7645V78.0102V77.2559C364.206 77.2559 360.858 76.1759 358.149 74.0525L357.684 74.6462ZM410.819 82.5342V81.7799C410.548 81.7799 410.484 81.7128 410.482 81.7108C410.48 81.7088 410.413 81.6446 410.413 81.3742H409.659H408.905C408.905 81.8771 409.031 82.3929 409.415 82.7776C409.8 83.1623 410.316 83.2885 410.819 83.2885V82.5342ZM409.659 81.3742H410.413V2.49417H409.659H408.905V81.3742H409.659ZM409.659 2.49417H410.413C410.413 2.22379 410.48 2.15954 410.482 2.15756C410.484 2.15559 410.548 2.08849 410.819 2.08849V1.33418V0.579849C410.316 0.579849 409.8 0.7061 409.415 1.09079C409.031 1.47548 408.905 1.99123 408.905 2.49417H409.659ZM410.819 1.33418V2.08849H414.647V1.33418V0.579849H410.819V1.33418ZM414.647 1.33418V2.08849C414.917 2.08849 414.982 2.15559 414.984 2.15756C414.985 2.15954 415.053 2.22378 415.053 2.49417H415.807H416.561C416.561 1.99123 416.435 1.47548 416.05 1.09079C415.666 0.7061 415.15 0.579849 414.647 0.579849V1.33418ZM415.807 2.49417H415.053V81.3742H415.807H416.561V2.49417H415.807ZM415.807 81.3742H415.053C415.053 81.6446 414.985 81.7088 414.984 81.7108C414.982 81.7128 414.917 81.7799 414.647 81.7799V82.5342V83.2885C415.15 83.2885 415.666 83.1623 416.05 82.7776C416.435 82.3929 416.561 81.8771 416.561 81.3742H415.807ZM414.647 82.5342V81.7799H410.819V82.5342V83.2885H414.647V82.5342ZM436.987 82.5342V81.7799C436.716 81.7799 436.652 81.7128 436.65 81.7108C436.648 81.7088 436.581 81.6446 436.581 81.3742H435.827H435.073C435.073 81.8771 435.199 82.3929 435.583 82.7776C435.968 83.1623 436.484 83.2885 436.987 83.2885V82.5342ZM435.827 81.3742H436.581V2.49417H435.827H435.073V81.3742H435.827ZM435.827 2.49417H436.581C436.581 2.22379 436.648 2.15954 436.65 2.15756C436.652 2.15559 436.716 2.08849 436.987 2.08849V1.33418V0.579849C436.484 0.579849 435.968 0.7061 435.583 1.09079C435.199 1.47548 435.073 1.99123 435.073 2.49417H435.827ZM436.987 1.33418V2.08849H440.815V1.33418V0.579849H436.987V1.33418ZM440.815 1.33418V2.08849C441.085 2.08849 441.15 2.15559 441.151 2.15756C441.153 2.15954 441.221 2.22378 441.221 2.49417H441.975H442.729C442.729 1.99123 442.603 1.47548 442.218 1.09079C441.834 0.7061 441.318 0.579849 440.815 0.579849V1.33418ZM441.975 2.49417H441.221V81.3742H441.975H442.729V2.49417H441.975ZM441.975 81.3742H441.221C441.221 81.6446 441.153 81.7088 441.151 81.7108C441.15 81.7128 441.085 81.7799 440.815 81.7799V82.5342V83.2885C441.318 83.2885 441.834 83.1623 442.218 82.7776C442.603 82.3929 442.729 81.8771 442.729 81.3742H441.975ZM440.815 82.5342V81.7799H436.987V82.5342V83.2885H440.815V82.5342ZM469.071 81.1422L468.768 81.8329L468.778 81.8373L468.788 81.8414L469.071 81.1422ZM469.187 75.1102L468.742 75.7196L468.753 75.7274L469.187 75.1102ZM492.619 61.8862L492.085 62.4196V62.4196L492.619 61.8862ZM487.631 58.7542L487.341 59.4505L487.358 59.4576L487.375 59.4639L487.631 58.7542ZM479.163 55.8542L479.384 55.1329L479.382 55.1324L479.163 55.8542ZM468.723 52.1422L469.027 51.452V51.452L468.723 52.1422ZM461.995 47.2702L461.412 47.749L461.421 47.7603L461.431 47.7713L461.995 47.2702ZM464.895 27.8982L465.347 28.5016L465.349 28.5002L464.895 27.8982ZM490.531 25.6942L490.221 26.3821L490.232 26.3867L490.242 26.391L490.531 25.6942ZM497.839 31.1462L497.231 31.5923L497.235 31.5987L497.24 31.6051L497.839 31.1462ZM490.415 31.7262L489.965 32.3317L489.975 32.3389L489.985 32.3458L490.415 31.7262ZM469.187 31.4942L469.609 32.119L469.616 32.1148L469.622 32.1104L469.187 31.4942ZM468.839 45.4142L468.445 46.0574L468.454 46.0628L468.839 45.4142ZM480.323 49.9382L480.107 50.661L480.111 50.662L480.323 49.9382ZM490.995 53.6502L490.69 54.3404L490.698 54.3435L490.995 53.6502ZM497.955 58.6382L497.392 59.1406L497.401 59.1507L497.955 58.6382ZM495.171 78.7062L495.639 79.2976L495.641 79.2964L495.171 78.7062ZM480.207 83.1142V82.3599C476.11 82.3599 472.496 81.715 469.354 80.443L469.071 81.1422L468.788 81.8414C472.141 83.1987 475.952 83.8685 480.207 83.8685V83.1142ZM469.071 81.1422L469.374 80.4515C466.298 79.1012 463.934 77.3172 462.245 75.1152L461.647 75.5742L461.048 76.0331C462.917 78.4712 465.502 80.3992 468.768 81.8329L469.071 81.1422ZM461.647 75.5742L462.245 75.1152C460.562 72.9199 459.733 70.5275 459.733 67.9182H458.979H458.225C458.225 70.8768 459.174 73.5885 461.048 76.0331L461.647 75.5742ZM458.979 67.9182H459.733V66.4102H458.979H458.225V67.9182H458.979ZM458.979 66.4102H459.733C459.733 66.1398 459.8 66.0755 459.802 66.0736C459.804 66.0716 459.868 66.0045 460.139 66.0045V65.2502V64.4959C459.636 64.4959 459.12 64.6221 458.735 65.0068C458.351 65.3915 458.225 65.9072 458.225 66.4102H458.979ZM460.139 65.2502V66.0045H463.735V65.2502V64.4959H460.139V65.2502ZM463.735 65.2502V66.0045C464.005 66.0045 464.069 66.0716 464.071 66.0736C464.073 66.0755 464.141 66.1398 464.141 66.4102H464.895H465.649C465.649 65.9072 465.523 65.3915 465.138 65.0068C464.754 64.6221 464.238 64.4959 463.735 64.4959V65.2502ZM464.895 66.4102H464.141V67.6862H464.895H465.649V66.4102H464.895ZM464.895 67.6862H464.141C464.141 70.8461 465.738 73.5273 468.742 75.7195L469.187 75.1102L469.631 74.5008C466.913 72.5171 465.649 70.249 465.649 67.6862H464.895ZM469.187 75.1102L468.753 75.7274C471.771 77.8481 475.568 78.8805 480.091 78.8805V78.1262V77.3719C475.797 77.3719 472.325 76.3936 469.621 74.493L469.187 75.1102ZM480.091 78.1262V78.8805C484.543 78.8805 488.237 77.8058 491.108 75.5914L490.647 74.9942L490.186 74.3969C487.643 76.3586 484.3 77.3719 480.091 77.3719V78.1262ZM490.647 74.9942L491.108 75.5914C493.977 73.3778 495.461 70.5761 495.461 67.2222H494.707H493.953C493.953 70.0549 492.73 72.4345 490.186 74.3969L490.647 74.9942ZM494.707 67.2222H495.461C495.461 64.8788 494.701 62.9011 493.152 61.3528L492.619 61.8862L492.085 62.4196C493.321 63.6553 493.953 65.2349 493.953 67.2222H494.707ZM492.619 61.8862L493.152 61.3528C491.678 59.8788 489.919 58.7764 487.886 58.0444L487.631 58.7542L487.375 59.4639C489.209 60.124 490.775 61.1095 492.085 62.4196L492.619 61.8862ZM487.631 58.7542L487.921 58.0579C486.03 57.2699 483.179 56.2946 479.384 55.1329L479.163 55.8542L478.942 56.5755C482.726 57.7337 485.52 58.6918 487.341 59.4505L487.631 58.7542ZM479.163 55.8542L479.382 55.1324C475.066 53.8222 471.618 52.5949 469.027 51.452L468.723 52.1422L468.418 52.8323C471.087 54.0095 474.598 55.2569 478.944 56.576L479.163 55.8542ZM468.723 52.1422L469.027 51.452C466.494 50.3344 464.341 48.7738 462.559 46.769L461.995 47.2702L461.431 47.7713C463.361 49.9425 465.693 51.6299 468.418 52.8323L468.723 52.1422ZM461.995 47.2702L462.578 46.7914C460.927 44.782 460.081 42.2528 460.081 39.1502H459.327H458.573C458.573 42.5436 459.505 45.4277 461.412 47.749L461.995 47.2702ZM459.327 39.1502H460.081C460.081 34.6656 461.829 31.1404 465.347 28.5016L464.895 27.8982L464.442 27.2947C460.537 30.224 458.573 34.2001 458.573 39.1502H459.327ZM464.895 27.8982L465.349 28.5002C468.974 25.7628 473.75 24.3605 479.743 24.3605V23.6062V22.8519C473.517 22.8519 468.394 24.3109 464.44 27.2962L464.895 27.8982ZM479.743 23.6062V24.3605C483.757 24.3605 487.243 25.042 490.221 26.3821L490.531 25.6942L490.84 25.0063C487.632 23.5624 483.926 22.8519 479.743 22.8519V23.6062ZM490.531 25.6942L490.242 26.391C493.31 27.6631 495.625 29.4032 497.231 31.5923L497.839 31.1462L498.447 30.7001C496.65 28.2491 494.093 26.3546 490.82 24.9974L490.531 25.6942ZM497.839 31.1462L497.24 31.6051C498.917 33.7927 499.753 36.2605 499.753 39.0342H500.507H501.261C501.261 35.9305 500.318 33.1397 498.437 30.6872L497.839 31.1462ZM500.507 39.0342H499.753V39.3822H500.507H501.261V39.0342H500.507ZM500.507 39.3822H499.753C499.753 39.6526 499.685 39.7168 499.683 39.7188C499.681 39.7208 499.617 39.7879 499.347 39.7879V40.5422V41.2965C499.85 41.2965 500.366 41.1703 500.75 40.7856C501.135 40.4009 501.261 39.8851 501.261 39.3822H500.507ZM499.347 40.5422V39.7879H495.751V40.5422V41.2965H499.347V40.5422ZM495.751 40.5422V39.7879C495.48 39.7879 495.416 39.7208 495.414 39.7188C495.412 39.7168 495.345 39.6526 495.345 39.3822H494.591H493.837C493.837 39.8851 493.963 40.4009 494.347 40.7856C494.732 41.1703 495.248 41.2965 495.751 41.2965V40.5422ZM494.591 39.3822H495.345V39.0342H494.591H493.837V39.3822H494.591ZM494.591 39.0342H495.345C495.345 35.8076 493.796 33.1559 490.845 31.1066L490.415 31.7262L489.985 32.3458C492.602 34.1631 493.837 36.3834 493.837 39.0342H494.591ZM490.415 31.7262L490.865 31.1207C487.991 28.9859 484.221 27.9559 479.627 27.9559V28.7102V29.4645C484.003 29.4645 487.425 30.4451 489.965 32.3317L490.415 31.7262ZM479.627 28.7102V27.9559C475.193 27.9559 471.546 28.9058 468.752 30.8779L469.187 31.4942L469.622 32.1104C472.087 30.3706 475.399 29.4645 479.627 29.4645V28.7102ZM469.187 31.4942L468.764 30.8694C465.934 32.7839 464.489 35.4507 464.489 38.8022H465.243H465.997C465.997 35.967 467.181 33.7617 469.609 32.119L469.187 31.4942ZM465.243 38.8022H464.489C464.489 41.9889 465.812 44.4435 468.445 46.0573L468.839 45.4142L469.233 44.771C467.071 43.4462 465.997 41.4928 465.997 38.8022H465.243ZM468.839 45.4142L468.454 46.0628C471.009 47.5802 474.909 49.1092 480.107 50.661L480.323 49.9382L480.539 49.2154C475.374 47.6738 471.618 46.1868 469.224 44.7656L468.839 45.4142ZM480.323 49.9382L480.111 50.662C484.581 51.9724 488.104 53.1991 490.69 54.3403L490.995 53.6502L491.299 52.96C488.627 51.7812 485.035 50.5333 480.535 49.2143L480.323 49.9382ZM490.995 53.6502L490.698 54.3435C493.304 55.4607 495.533 57.0588 497.392 59.1406L497.955 58.6382L498.518 58.1358C496.51 55.8869 494.099 54.1597 491.292 52.9568L490.995 53.6502ZM497.955 58.6382L497.401 59.1507C499.181 61.0728 500.101 63.6221 500.101 66.8742H500.855H501.609C501.609 63.3209 500.595 60.3796 498.508 58.1257L497.955 58.6382ZM500.855 66.8742H500.101C500.101 71.518 498.309 75.2441 494.701 78.116L495.171 78.7062L495.641 79.2964C499.611 76.1363 501.609 71.9744 501.609 66.8742H500.855ZM495.171 78.7062L494.703 78.1148C491.161 80.9182 486.356 82.3599 480.207 82.3599V83.1142V83.8685C486.586 83.8685 491.756 82.3715 495.639 79.2976L495.171 78.7062Z" fill="#414042" mask="url(#path-1-outside-1_4095_3597)"/>
</svg>
