<svg width="109" height="63" viewBox="0 0 109 63" fill="none" xmlns="http://www.w3.org/2000/svg">
<g clip-path="url(#clip0_385_206)">
<path d="M107.899 56.5733H102.316C102.262 56.5733 102.233 56.5443 102.233 56.4912V54.8922C102.233 54.4043 102.374 54.0227 102.654 53.7377C102.934 53.4575 103.311 53.3174 103.795 53.3174H106.42C106.903 53.3174 107.28 53.4575 107.561 53.7377C107.841 54.0178 107.981 54.4043 107.981 54.8922V56.4912C107.981 56.5443 107.952 56.5733 107.899 56.5733ZM107.474 55.955V54.8826C107.469 54.583 107.367 54.3415 107.174 54.1676C106.981 53.9937 106.715 53.9019 106.371 53.8971H103.843C103.505 53.8971 103.234 53.984 103.041 54.1579C102.843 54.3318 102.746 54.5734 102.746 54.8777V55.9502C102.746 55.9502 102.755 55.984 102.78 55.984H107.445C107.445 55.984 107.478 55.9743 107.478 55.9502L107.474 55.955Z" fill="#414042"/>
<path d="M102.746 45.7999V48.2588C102.746 48.2588 102.756 48.2926 102.78 48.2926H104.815C104.815 48.2926 104.849 48.2829 104.849 48.2588V46.6018C104.849 46.5487 104.878 46.5197 104.931 46.5197H105.274C105.327 46.5197 105.356 46.5487 105.356 46.6018V48.2588C105.356 48.2588 105.366 48.2926 105.39 48.2926H107.445C107.445 48.2926 107.479 48.2829 107.479 48.2588V45.7999C107.479 45.7468 107.508 45.7178 107.561 45.7178H107.904C107.957 45.7178 107.986 45.7468 107.986 45.7999V48.795C107.986 48.8481 107.957 48.8771 107.904 48.8771H102.32C102.267 48.8771 102.238 48.8481 102.238 48.795V45.7999C102.238 45.7468 102.267 45.7178 102.32 45.7178H102.664C102.717 45.7178 102.746 45.7468 102.746 45.7999Z" fill="#414042"/>
<path d="M107.643 41.1917C107.372 41.4961 107.01 41.6458 106.555 41.6458H106.333C106.28 41.6458 106.251 41.6169 106.251 41.5637V41.1628C106.251 41.1096 106.28 41.0806 106.333 41.0806H106.522C106.826 41.0806 107.073 40.9792 107.261 40.7666C107.45 40.5541 107.542 40.2836 107.542 39.9406C107.542 39.6169 107.455 39.3657 107.281 39.1773C107.107 38.9937 106.875 38.8971 106.589 38.8971C106.406 38.8971 106.241 38.9406 106.106 39.0276C105.971 39.1145 105.845 39.2449 105.729 39.414C105.613 39.5831 105.468 39.8246 105.294 40.1435C105.115 40.4816 104.955 40.7473 104.815 40.9454C104.68 41.1386 104.511 41.298 104.312 41.4188C104.114 41.5396 103.872 41.5975 103.587 41.5975C103.143 41.5975 102.794 41.4574 102.543 41.1724C102.292 40.8874 102.166 40.5058 102.166 40.0324C102.166 39.5251 102.306 39.1193 102.587 38.8198C102.867 38.5203 103.234 38.3706 103.694 38.3706H103.882C103.935 38.3706 103.964 38.3996 103.964 38.4527V38.8633C103.964 38.9164 103.935 38.9454 103.882 38.9454H103.703C103.399 38.9454 103.147 39.0421 102.959 39.2401C102.77 39.4382 102.674 39.7087 102.674 40.0517C102.674 40.356 102.751 40.5976 102.91 40.7715C103.07 40.9454 103.292 41.0323 103.582 41.0323C103.771 41.0323 103.926 40.9937 104.051 40.9116C104.177 40.8294 104.293 40.7087 104.395 40.5541C104.496 40.3995 104.636 40.158 104.815 39.8343C105.023 39.4623 105.197 39.1773 105.342 38.9793C105.487 38.7812 105.656 38.6218 105.845 38.501C106.033 38.3851 106.265 38.3223 106.541 38.3223C107 38.3223 107.368 38.472 107.638 38.7667C107.909 39.0614 108.044 39.4623 108.044 39.9744C108.044 40.4865 107.909 40.8971 107.638 41.2014L107.643 41.1917Z" fill="#414042"/>
<path d="M107.899 33.9703H102.316C102.262 33.9703 102.233 33.9413 102.233 33.8881V33.4679C102.233 33.4147 102.262 33.3857 102.316 33.3857H107.899C107.952 33.3857 107.981 33.4147 107.981 33.4679V33.8881C107.981 33.9413 107.952 33.9703 107.899 33.9703Z" fill="#414042"/>
<path d="M107.614 28.4438C107.324 28.7481 106.937 28.8979 106.459 28.8979H103.766C103.283 28.8979 102.901 28.7481 102.611 28.4438C102.321 28.1395 102.176 27.7385 102.176 27.2409C102.176 26.9124 102.243 26.6226 102.374 26.3762C102.505 26.125 102.688 25.9318 102.925 25.7917C103.162 25.6516 103.433 25.584 103.737 25.584H103.969C104.022 25.584 104.051 25.613 104.051 25.6661V26.0864C104.051 26.1395 104.022 26.1685 103.969 26.1685H103.737C103.423 26.1685 103.172 26.2651 102.978 26.4632C102.785 26.6612 102.688 26.9221 102.688 27.2409C102.688 27.5598 102.785 27.8255 102.978 28.0187C103.172 28.2168 103.433 28.3134 103.757 28.3134H106.483C106.802 28.3134 107.058 28.2119 107.257 28.0139C107.455 27.8158 107.551 27.5549 107.551 27.2313C107.551 26.9076 107.46 26.6516 107.271 26.4535C107.087 26.2603 106.831 26.1637 106.517 26.1637H105.623C105.623 26.1637 105.589 26.1733 105.589 26.1975V27.1588C105.589 27.212 105.56 27.2409 105.507 27.2409H105.163C105.11 27.2409 105.081 27.212 105.081 27.1588V25.6661C105.081 25.613 105.11 25.584 105.163 25.584H106.444C106.942 25.584 107.339 25.7337 107.629 26.0332C107.919 26.3328 108.064 26.7385 108.064 27.2409C108.064 27.7433 107.919 28.1395 107.629 28.4438H107.614Z" fill="#414042"/>
<path d="M102.238 18.1587V17.7384C102.238 17.6852 102.267 17.6562 102.32 17.6562H107.904C107.957 17.6562 107.986 17.6852 107.986 17.7384V18.1828C107.986 18.2311 107.967 18.2649 107.928 18.2794L103.539 20.4774C103.539 20.4774 103.524 20.4967 103.524 20.5064C103.524 20.5161 103.534 20.5209 103.548 20.5209L107.909 20.5112C107.962 20.5112 107.991 20.5402 107.991 20.5934V21.0136C107.991 21.0668 107.962 21.0958 107.909 21.0958H102.325C102.272 21.0958 102.243 21.0668 102.243 21.0136V20.5692C102.243 20.5209 102.262 20.4871 102.301 20.4726L106.71 18.2746C106.71 18.2746 106.724 18.2553 106.724 18.2456C106.724 18.2359 106.715 18.2311 106.7 18.2311L102.325 18.2408C102.272 18.2408 102.243 18.2118 102.243 18.1587H102.238Z" fill="#414042"/>
<path d="M99.0336 61.5483C98.7242 61.8719 98.3133 62.0314 97.8057 62.0314H94.9439C94.4314 62.0314 94.0205 61.8719 93.7112 61.5483C93.4018 61.2246 93.2471 60.7995 93.2471 60.2729C93.2471 59.9251 93.3148 59.616 93.4549 59.3551C93.5951 59.0942 93.7885 58.8865 94.0399 58.7368C94.2913 58.587 94.5765 58.5145 94.9052 58.5145H95.1469C95.2049 58.5145 95.2339 58.5435 95.2339 58.6015V59.0459C95.2339 59.1039 95.2049 59.1329 95.1469 59.1329H94.9052C94.5716 59.1329 94.3058 59.2392 94.0979 59.4469C93.89 59.6546 93.7885 59.93 93.7885 60.2729C93.7885 60.6159 93.89 60.8913 94.0979 61.099C94.3058 61.3067 94.5813 61.413 94.9245 61.413H97.8202C98.1586 61.413 98.4293 61.3067 98.642 61.0942C98.8499 60.8816 98.9562 60.6063 98.9562 60.2633C98.9562 59.9203 98.8547 59.6449 98.6614 59.4372C98.4632 59.2295 98.1973 59.1281 97.8589 59.1281H96.9066C96.9066 59.1281 96.8727 59.1377 96.8727 59.1619V60.1812C96.8727 60.2391 96.8437 60.2681 96.7857 60.2681H96.4183C96.3603 60.2681 96.3313 60.2391 96.3313 60.1812V58.5918C96.3313 58.5339 96.3603 58.5049 96.4183 58.5049H97.7815C98.3133 58.5049 98.729 58.6643 99.0384 58.9831C99.3478 59.302 99.5025 59.7319 99.5025 60.2633C99.5025 60.7947 99.3478 61.2198 99.0384 61.5386L99.0336 61.5483Z" fill="#414042"/>
<path d="M99.3523 50.8485L96.6548 51.9306C96.6548 51.9306 96.6307 51.95 96.6307 51.9645V53.09C96.6307 53.09 96.6403 53.1238 96.6645 53.1238H99.333C99.391 53.1238 99.42 53.1528 99.42 53.2108V53.6552C99.42 53.7132 99.391 53.7422 99.333 53.7422H93.3966C93.3386 53.7422 93.3096 53.7132 93.3096 53.6552V51.805C93.3096 51.5007 93.3772 51.235 93.5174 50.9983C93.6576 50.7616 93.8558 50.578 94.112 50.4476C94.3683 50.3172 94.6631 50.2495 94.9919 50.2495C95.3883 50.2495 95.7267 50.3461 96.0022 50.5394C96.2826 50.7326 96.4663 50.9935 96.563 51.322C96.5726 51.3461 96.5871 51.3509 96.6065 51.3413L99.3136 50.2157L99.3475 50.2061C99.3958 50.2061 99.4151 50.2302 99.4151 50.2833V50.7471C99.4151 50.7954 99.391 50.8244 99.3475 50.8437L99.3523 50.8485ZM93.8897 53.1238H96.0989C96.0989 53.1238 96.1327 53.1142 96.1327 53.09V51.8872C96.1327 51.5877 96.0264 51.3413 95.8185 51.1529C95.6106 50.9645 95.3351 50.8727 94.9967 50.8727C94.6583 50.8727 94.3779 50.9645 94.1701 51.1529C93.9622 51.3365 93.8558 51.5828 93.8558 51.8872V53.09C93.8558 53.09 93.8655 53.1238 93.8897 53.1238Z" fill="#414042"/>
<path d="M99.3476 42.5682L98.255 42.8581C98.255 42.8581 98.2309 42.8774 98.2309 42.9015V44.9836C98.2309 44.9836 98.2405 45.0223 98.255 45.0271L99.3476 45.3169C99.4007 45.3266 99.4249 45.3604 99.4249 45.4136V45.8676C99.4249 45.8966 99.4152 45.9208 99.4007 45.9353C99.3862 45.9498 99.3621 45.9546 99.3331 45.9498L93.3967 44.317C93.3435 44.3073 93.3193 44.2735 93.3193 44.2203V43.66C93.3193 43.6068 93.3435 43.5779 93.3967 43.5634L99.3331 41.9306L99.3572 41.9209C99.4056 41.9209 99.4249 41.9499 99.4249 42.0079V42.4716C99.4249 42.5247 99.4007 42.5537 99.3476 42.5682ZM97.7088 44.8773C97.7088 44.8773 97.7233 44.858 97.7233 44.8483V43.0416C97.7233 43.0416 97.7233 43.0223 97.7088 43.0127C97.6991 43.003 97.6943 43.003 97.6846 43.0127L94.175 43.9353C94.175 43.9353 94.1557 43.945 94.1557 43.9547C94.1557 43.9595 94.1605 43.9643 94.175 43.974L97.6846 44.8918C97.6846 44.8918 97.6991 44.8918 97.7088 44.8918V44.8773Z" fill="#414042"/>
<path d="M93.7736 34.4622C94.083 34.1723 94.4988 34.0322 95.0064 34.0322C95.514 34.0322 95.92 34.1771 96.2246 34.4622C96.5291 34.7472 96.6838 35.1288 96.6838 35.5926V36.892C96.6838 36.892 96.6935 36.9259 96.7177 36.9259H99.3378C99.3958 36.9259 99.4248 36.9548 99.4248 37.0128V37.4572C99.4248 37.5152 99.3958 37.5442 99.3378 37.5442H93.3966C93.3386 37.5442 93.3096 37.5152 93.3096 37.4572V35.5926C93.3096 35.1288 93.4643 34.752 93.7785 34.4622H93.7736ZM95.8572 34.9308C95.6493 34.7472 95.3689 34.6506 95.0209 34.6506C94.6728 34.6506 94.3828 34.7424 94.1701 34.9308C93.9574 35.1192 93.851 35.3655 93.851 35.6699V36.892C93.851 36.892 93.8607 36.9259 93.8848 36.9259H96.1376C96.1376 36.9259 96.1714 36.9162 96.1714 36.892V35.6699C96.1714 35.3607 96.0651 35.1143 95.8572 34.9308Z" fill="#414042"/>
<path d="M93.3145 26.5783V26.1338C93.3145 26.0759 93.3435 26.0469 93.4015 26.0469H99.3379C99.3959 26.0469 99.4249 26.0759 99.4249 26.1338V26.5783C99.4249 26.6362 99.3959 26.6652 99.3379 26.6652H96.6694C96.6694 26.6652 96.6355 26.6749 96.6355 26.699V28.8632C96.6355 28.8632 96.6452 28.897 96.6694 28.897H99.3379C99.3959 28.897 99.4249 28.926 99.4249 28.984V29.4284C99.4249 29.4864 99.3959 29.5154 99.3379 29.5154H93.4015C93.3435 29.5154 93.3145 29.4864 93.3145 29.4284V28.984C93.3145 28.926 93.3435 28.897 93.4015 28.897H96.0554C96.0554 28.897 96.0893 28.8874 96.0893 28.8632V26.699C96.0893 26.699 96.0796 26.6652 96.0554 26.6652H93.4015C93.3435 26.6652 93.3145 26.6362 93.3145 26.5783Z" fill="#414042"/>
<path d="M99.3379 21.1193H93.4015C93.3435 21.1193 93.3145 21.0903 93.3145 21.0324V20.5879C93.3145 20.53 93.3435 20.501 93.4015 20.501H99.3379C99.3959 20.501 99.4249 20.53 99.4249 20.5879V21.0324C99.4249 21.0903 99.3959 21.1193 99.3379 21.1193Z" fill="#414042"/>
<path d="M99.0239 15.2455C98.7097 15.5692 98.294 15.7286 97.7767 15.7286H94.9584C94.4411 15.7286 94.0254 15.5692 93.716 15.2455C93.4066 14.9219 93.2471 14.4968 93.2471 13.9702C93.2471 13.4437 93.4018 13.0041 93.7112 12.6852C94.0205 12.3616 94.4314 12.2021 94.9439 12.2021H95.0212C95.0792 12.2021 95.1082 12.2311 95.1082 12.2891L95.1276 12.7335C95.1276 12.7915 95.1034 12.8205 95.0502 12.8205H94.9294C94.591 12.8205 94.3203 12.9268 94.1076 13.1393C93.8949 13.3519 93.7933 13.6272 93.7933 13.9702C93.7933 14.3132 93.8949 14.5886 94.1027 14.7963C94.3106 15.004 94.5861 15.1103 94.9294 15.1103H97.825C98.1683 15.1103 98.4438 15.004 98.6517 14.7963C98.8596 14.5886 98.9611 14.3132 98.9611 13.9702C98.9611 13.6272 98.8547 13.3519 98.6469 13.1393C98.439 12.9268 98.1634 12.8205 97.825 12.8205H97.7042C97.651 12.8205 97.6268 12.7915 97.6268 12.7335L97.651 12.2891C97.651 12.2311 97.68 12.2021 97.738 12.2021H97.8009C98.3133 12.2021 98.7242 12.3616 99.0336 12.6852C99.343 13.0089 99.5025 13.4388 99.5025 13.9702C99.5025 14.5016 99.343 14.9267 99.0336 15.2455H99.0239Z" fill="#414042"/>
<path d="M29.9337 12.0621C28.6623 12.3858 28.2659 13.1056 28.0532 13.7287C24.7128 23.5255 21.5657 33.1098 18.2108 42.9018C18.2108 42.9066 18.2108 42.9115 18.206 42.9211C17.9836 43.5684 17.0748 43.5926 16.8186 42.9549C16.1708 41.3414 15.262 39.071 14.8414 38.0179L13.367 34.3175C10.5921 27.3467 7.81732 20.3759 5.05699 13.4002C4.63642 12.3423 3.9548 11.8447 2.7946 11.8447C1.83743 11.8689 1.00111 12.2457 0.377502 12.922C0.0681144 13.2601 -0.265445 13.9123 0.314658 15.492L9.25307 38.8633C11.0127 43.2786 14.5997 52.1672 14.5997 52.1721C14.9574 53.0609 16.2868 53.2397 16.7799 51.9595L26.3323 25.4965C26.5691 24.8057 27.8067 21.0763 28.6043 18.6851C28.7252 18.3276 29.2521 18.4146 29.2521 18.7914C29.2376 29.7524 29.0732 48.5683 29.0732 48.8002C29.0732 51.3943 28.0677 52.0561 27.3909 52.5295C27.0574 52.7614 26.6658 52.9015 26.2646 52.945C25.9504 52.9788 25.8488 53.4087 26.1292 53.5585C27.0961 54.0754 28.5076 54.1237 29.373 54.0271C31.5822 53.771 34.299 53.0078 34.357 49.5538C34.5455 38.1386 34.7244 27.1003 34.7389 15.69C34.7389 13.8737 32.8101 11.3375 29.9289 12.0718L29.9337 12.0621Z" fill="#414042"/>
<path d="M88.9777 33.9555L89.5191 11.9465H83.6601C83.6601 14.043 83.6601 20.4003 83.6698 22.5887C83.6843 29.6609 83.694 36.9747 83.5876 43.704C83.5538 45.8875 83.1864 48.3416 82.4902 50.9888C81.4074 55.1336 79.0338 57.9355 75.4468 59.3074C73.402 60.09 71.3523 60.4861 69.3558 60.4861C66.7743 60.4861 64.2267 59.8243 61.7903 58.5103C59.6245 57.3461 58.0196 55.9355 56.7965 54.1047C56.8207 54.1047 56.8449 54.1047 56.869 54.1047C57.4492 54.0709 57.9374 54.0467 58.4208 53.9791C69.6748 52.4429 77.7382 42.448 76.7762 31.2261C75.8481 20.3714 66.5713 11.874 55.6605 11.874C54.4955 11.874 53.3208 11.9755 52.1654 12.1735C41.4045 14.0189 33.8293 23.6273 34.5448 34.5207C35.2216 44.7475 43.7491 53.3462 53.9637 54.0902C54.1522 54.1047 54.3359 54.124 54.5535 54.153L54.6888 54.1675C54.7662 54.2544 54.8677 54.3897 54.9595 54.5056C55.0417 54.6119 55.1191 54.7085 55.1819 54.781L55.4671 55.1143C56.4001 56.2061 57.2848 57.2398 58.3676 58.1287C61.505 60.7083 65.3337 62.0706 69.4331 62.0706C75.4323 62.0706 81.4364 59.1335 85.0959 54.409C89.1469 49.1821 89.0744 42.9939 88.9971 36.4482C88.9874 35.6221 88.9777 34.7864 88.9729 33.9603L88.9777 33.9555ZM69.6071 25.9267C70.076 26.8204 70.4241 27.8059 70.4628 28.859C70.4628 28.9653 70.4531 29.6078 70.4531 29.6078C70.4531 29.6078 69.6748 29.5933 69.4331 29.6078C67.3109 29.772 65.324 30.1682 63.5112 30.7768C64.1252 30.2165 64.5796 29.487 64.7826 28.6755C65.2274 26.9026 64.5312 25.0814 63.1003 24.0621C63.7529 23.5693 64.3862 23.265 65.1597 23.265C67.016 23.3278 68.7321 24.2553 69.6071 25.9219V25.9267ZM53.4609 51.5395L53.3643 51.525C46.4369 50.4526 40.5295 41.0471 40.2588 33.9748C40.1041 30.0232 40.9501 26.1731 42.7049 22.8447C44.0246 20.3375 46.9106 15.8787 51.3871 14.2073C52.6053 13.7532 53.9154 13.5213 55.2834 13.5213C58.416 13.5213 61.6452 14.7387 64.1445 16.8594C65.4787 17.9898 66.6389 19.3762 67.6154 20.9945C66.6293 20.4583 65.5561 20.154 64.4587 20.1202H64.2218C60.5334 20.1202 56.463 22.9123 56.2793 27.0813V27.2697C56.2793 27.3277 56.2696 27.3856 56.2648 27.4484C56.2261 28.6272 56.6563 29.7479 57.4782 30.5933C58.3 31.4435 59.407 31.9073 60.5914 31.9073C60.6736 31.9073 60.7557 31.9073 60.8379 31.9024C59.1411 32.7671 57.6715 33.8589 56.4871 35.1487C52.6875 39.2838 51.4451 46.2933 53.4561 51.5492L53.4609 51.5395ZM58.3193 37.6462C61.4857 33.7961 66.2764 32.1778 70.487 33.1149C72.2224 37.0617 71.565 42.0712 68.4034 45.9213C65.237 49.7715 60.4463 51.3898 56.2358 50.4526C54.5003 46.5059 55.1577 41.4963 58.3193 37.6462Z" fill="#414042"/>
<path d="M69.8878 0.73872C69.1481 4.05263 70.4244 7.82547 73.4602 10.3181C76.4961 12.8108 80.4456 13.3277 83.554 11.9606C84.2936 8.6467 83.0174 4.87386 79.9815 2.38118C76.9457 -0.111497 72.9961 -0.62839 69.8878 0.73872Z" fill="#A3C6CB"/>
</g>
<defs>
<clipPath id="clip0_385_206">
<rect width="108.049" height="62.0707" fill="white"/>
</clipPath>
</defs>
</svg>
